_Griffith_Gothic-Bold_WebTT.ufo
<glyph name="ampersand" format="1">
  <advance width="1419.264"/>
  <unicode hex="0026"/>
  <outline>
    <contour>
      <point x="1413" y="168" type="qcurve"/>
      <point x="1413" y="4" type="line"/>
      <point x="1377.92537313" y="-3.46268656716"/>
      <point x="1319.55223881" y="-12.0"/>
      <point x="1280" y="-12" type="qcurve" smooth="yes"/>
      <point x="1183.73134328" y="-12.0"/>
      <point x="1031.79104478" y="51.2089552239"/>
      <point x="940" y="143" type="qcurve"/>
      <point x="849.701492537" y="63.8955223881"/>
      <point x="643.432835821" y="-20.0"/>
      <point x="530" y="-20" type="qcurve" smooth="yes"/>
      <point x="316.567164179" y="-20.0"/>
      <point x="55.0" y="207.955223881"/>
      <point x="55" y="399" type="qcurve" smooth="yes"/>
      <point x="55.0" y="535.567164179"/>
      <point x="203.955223881" y="750.746268657"/>
      <point x="395" y="850" type="qcurve"/>
      <point x="336.791044776" y="940.298507463"/>
      <point x="274.0" y="1100.14925373"/>
      <point x="274" y="1180" type="qcurve" smooth="yes"/>
      <point x="274.0" y="1320.29850746"/>
      <point x="467.537313433" y="1499.0"/>
      <point x="625" y="1499" type="qcurve" smooth="yes"/>
      <point x="775.746268657" y="1499.0"/>
      <point x="938.0" y="1318.3880597"/>
      <point x="938" y="1196" type="qcurve" smooth="yes"/>
      <point x="938.0" y="1079.58208955"/>
      <point x="784.313432836" y="900.373134328"/>
      <point x="647" y="825" type="qcurve"/>
      <point x="743.268656716" y="684.701492537"/>
      <point x="899.805970149" y="476.880597015"/>
      <point x="961" y="403" type="qcurve"/>
      <point x="1021.44776119" y="488.820895522"/>
      <point x="1125.44776119" y="707.865671642"/>
      <point x="1165" y="831" type="qcurve"/>
      <point x="1333" y="758" type="line"/>
      <point x="1281.50746269" y="615.462686567"/>
      <point x="1148.37313433" y="370.776119403"/>
      <point x="1073" y="276" type="qcurve"/>
      <point x="1143.14925373" y="199.880597015"/>
      <point x="1243.49253731" y="150.0"/>
      <point x="1292" y="150" type="qcurve" smooth="yes"/>
      <point x="1332.29850746" y="150.0"/>
      <point x="1383.89552239" y="159.044776119"/>
    </contour>
    <contour>
      <point x="557" y="139" type="qcurve" smooth="yes"/>
      <point x="631.626865672" y="139.0"/>
      <point x="770.044776119" y="203.28358209"/>
      <point x="829" y="260" type="qcurve"/>
      <point x="760.343283582" y="344.328358209"/>
      <point x="582.223880597" y="576.52238806"/>
      <point x="477" y="731" type="qcurve"/>
      <point x="365.805970149" y="665.328358209"/>
      <point x="270.0" y="516.805970149"/>
      <point x="270" y="428" type="qcurve" smooth="yes"/>
      <point x="270.0" y="305.611940299"/>
      <point x="430.134328358" y="139.0"/>
    </contour>
    <contour>
      <point x="559" y="930" type="qcurve"/>
      <point x="664.223880597" y="991.194029851"/>
      <point x="758.0" y="1120.35820896"/>
      <point x="758" y="1192" type="qcurve" smooth="yes"/>
      <point x="758.0" y="1266.62686567"/>
      <point x="687.402985075" y="1366.0"/>
      <point x="618" y="1366" type="qcurve" smooth="yes"/>
      <point x="538.895522388" y="1366.0"/>
      <point x="461.0" y="1263.64179104"/>
      <point x="461" y="1192" type="qcurve" smooth="yes"/>
      <point x="461.0" y="1130.80597015"/>
      <point x="509.0" y="1003.13432836"/>
    </contour>
  </outline>
</glyph>
<glyph name="parenright" format="1">
  <advance width="702.464"/>
  <unicode hex="0029"/>
  <outline>
    <contour>
      <point x="240" y="1505" type="line"/>
      <point x="383.28358209" y="1357.23880597"/>
      <point x="602.0" y="937.835820896"/>
      <point x="602" y="655" type="qcurve" smooth="yes"/>
      <point x="602.0" y="372.164179104"/>
      <point x="383.28358209" y="-46.4925373134"/>
      <point x="240" y="-195" type="qcurve"/>
      <point x="47" y="-195" type="line"/>
      <point x="204.462686567" y="-6.94029850746"/>
      <point x="369.0" y="409.47761194"/>
      <point x="369" y="655" type="qcurve" smooth="yes"/>
      <point x="369.0" y="901.268656716"/>
      <point x="204.462686567" y="1316.94029851"/>
      <point x="47" y="1505" type="qcurve"/>
    </contour>
  </outline>
</glyph>
<glyph name="asterisk" format="1">
  <advance width="901.12"/>
  <unicode hex="002A"/>
  <outline>
    <contour>
      <point x="772" y="1321" type="line"/>
      <point x="834" y="1135" type="line"/>
      <point x="516" y="1092" type="line"/>
      <point x="756" y="872" type="line"/>
      <point x="596" y="756" type="line"/>
      <point x="451" y="1055" type="line"/>
      <point x="307" y="756" type="line"/>
      <point x="147" y="872" type="line"/>
      <point x="385" y="1092" type="line"/>
      <point x="68" y="1135" type="line"/>
      <point x="129" y="1321" type="line"/>
      <point x="414" y="1159" type="line"/>
      <point x="352" y="1475" type="line"/>
      <point x="549" y="1475" type="line"/>
      <point x="487" y="1159" type="line"/>
    </contour>
  </outline>
</glyph>
<glyph name="plus" format="1">
  <advance width="1228.8"/>
  <unicode hex="002B"/>
  <outline>
    <contour>
      <point x="1143" y="821" type="line"/>
      <point x="1143" y="633" type="line"/>
      <point x="711" y="633" type="line"/>
      <point x="711" y="199" type="line"/>
      <point x="518" y="199" type="line"/>
      <point x="518" y="633" type="line"/>
      <point x="86" y="633" type="line"/>
      <point x="86" y="821" type="line"/>
      <point x="518" y="821" type="line"/>
      <point x="518" y="1255" type="line"/>
      <point x="711" y="1255" type="line"/>
      <point x="711" y="821" type="line"/>
    </contour>
  </outline>
</glyph>
<glyph name="hyphen" format="1">
  <advance width="681.984"/>
  <unicode hex="002D"/>
  <unicode hex="2010"/>
  <unicode hex="2011"/>
  <outline>
    <contour>
      <point x="598" y="680" type="line"/>
      <point x="598" y="485" type="line"/>
      <point x="84" y="485" type="line"/>
      <point x="84" y="680" type="line"/>
    </contour>
  </outline>
</glyph>
<glyph name="slash" format="1">
  <advance width="835.584"/>
  <unicode hex="002F"/>
  <outline>
    <contour>
      <point x="596" y="1505" type="line"/>
      <point x="807" y="1505" type="line"/>
      <point x="178" y="-195" type="line"/>
      <point x="-33" y="-195" type="line"/>
    </contour>
  </outline>
</glyph>
<glyph name="zero" format="1">
  <advance width="1245.184"/>
  <unicode hex="0030"/>
  <outline>
    <contour>
      <point x="1153" y="778" type="qcurve" smooth="yes"/>
      <point x="1153" y="698" type="line" smooth="yes"/>
      <point x="1153.0" y="360.686567164"/>
      <point x="865.537313433" y="-25.0"/>
      <point x="623" y="-25" type="qcurve" smooth="yes"/>
      <point x="379.71641791" y="-25.0"/>
      <point x="92.0" y="358.686567164"/>
      <point x="92" y="696" type="qcurve" smooth="yes"/>
      <point x="92" y="776" type="line" smooth="yes"/>
      <point x="92.0" y="1114.05970149"/>
      <point x="379.71641791" y="1499.0"/>
      <point x="623" y="1499" type="qcurve" smooth="yes"/>
      <point x="865.537313433" y="1499.0"/>
      <point x="1153.0" y="1116.05970149"/>
    </contour>
    <contour>
      <point x="623" y="156" type="qcurve" smooth="yes"/>
      <point x="770.76119403" y="156.0"/>
      <point x="915.0" y="444.388059701"/>
      <point x="915" y="672" type="qcurve" smooth="yes"/>
      <point x="915" y="799" type="line" smooth="yes"/>
      <point x="915.0" y="1026.6119403"/>
      <point x="770.76119403" y="1319.0"/>
      <point x="623" y="1319" type="qcurve" smooth="yes"/>
      <point x="474.492537313" y="1319.0"/>
      <point x="330.0" y="1030.6119403"/>
      <point x="330" y="803" type="qcurve" smooth="yes"/>
      <point x="330" y="676" type="line" smooth="yes"/>
      <point x="330.0" y="446.895522388"/>
      <point x="474.492537313" y="156.0"/>
    </contour>
  </outline>
</glyph>
<glyph name="six" format="1">
  <advance width="1183.744"/>
  <unicode hex="0036"/>
  <outline>
    <contour>
      <point x="686" y="936" type="qcurve" smooth="yes"/>
      <point x="869.582089552" y="936.0"/>
      <point x="1124.0" y="694.641791045"/>
      <point x="1124" y="473" type="qcurve" smooth="yes"/>
      <point x="1124.0" y="245.388059701"/>
      <point x="828.597014925" y="-25.0"/>
      <point x="598" y="-25" type="qcurve" smooth="yes"/>
      <point x="367.402985075" y="-25.0"/>
      <point x="86.0" y="245.850746269"/>
      <point x="86" y="516" type="qcurve" smooth="yes"/>
      <point x="86.0" y="766.746268657"/>
      <point x="338.373134328" y="1269.7761194"/>
      <point x="563" y="1475" type="qcurve"/>
      <point x="844" y="1475" type="line"/>
      <point x="626.835820896" y="1306.34328358"/>
      <point x="352.313432836" y="929.462686567"/>
      <point x="315" y="772" type="qcurve"/>
      <point x="330" y="772" type="line"/>
      <point x="395.671641791" y="846.626865672"/>
      <point x="563.611940299" y="936.0"/>
    </contour>
    <contour>
      <point x="604" y="135" type="qcurve" smooth="yes"/>
      <point x="733.850746269" y="135.0"/>
      <point x="899.0" y="315.47761194"/>
      <point x="899" y="461" type="qcurve" smooth="yes"/>
      <point x="899.0" y="602.791044776"/>
      <point x="749.074626866" y="778.0"/>
      <point x="614" y="778" type="qcurve" smooth="yes"/>
      <point x="476.686567164" y="778.0"/>
      <point x="309.0" y="591.835820896"/>
      <point x="309" y="459" type="qcurve" smooth="yes"/>
      <point x="309.0" y="316.462686567"/>
      <point x="472.656716418" y="135.0"/>
    </contour>
  </outline>
</glyph>
<glyph name="eight" format="1">
  <advance width="1216.512"/>
  <unicode hex="0038"/>
  <outline>
    <contour>
      <point x="842" y="782" type="line"/>
      <point x="951.701492537" y="751.402985075"/>
      <point x="1135.0" y="565.686567164"/>
      <point x="1135" y="403" type="qcurve" smooth="yes"/>
      <point x="1135.0" y="197.029850746"/>
      <point x="817.701492537" y="-25.0"/>
      <point x="608" y="-25" type="qcurve" smooth="yes"/>
      <point x="399.044776119" y="-25.0"/>
      <point x="84.0" y="193.029850746"/>
      <point x="84" y="399" type="qcurve" smooth="yes"/>
      <point x="84.0" y="560.940298507"/>
      <point x="265.059701493" y="751.402985075"/>
      <point x="377" y="782" type="qcurve"/>
      <point x="377" y="795" type="line"/>
      <point x="280.731343284" y="825.597014925"/>
      <point x="125.0" y="983.671641791"/>
      <point x="125" y="1118" type="qcurve" smooth="yes"/>
      <point x="125.0" y="1289.64179104"/>
      <point x="402.029850746" y="1499.0"/>
      <point x="608" y="1499" type="qcurve" smooth="yes"/>
      <point x="816.208955224" y="1499.0"/>
      <point x="1094.0" y="1293.64179104"/>
      <point x="1094" y="1122" type="qcurve" smooth="yes"/>
      <point x="1094.0" y="987.671641791"/>
      <point x="936.776119403" y="827.089552239"/>
      <point x="842" y="795" type="qcurve"/>
    </contour>
    <contour>
      <point x="608" y="135" type="qcurve" smooth="yes"/>
      <point x="737.850746269" y="135.0"/>
      <point x="909.0" y="283.671641791"/>
      <point x="909" y="418" type="qcurve" smooth="yes"/>
      <point x="909.0" y="555.313432836"/>
      <point x="734.865671642" y="711.0"/>
      <point x="608" y="711" type="qcurve" smooth="yes"/>
      <point x="481.134328358" y="711.0"/>
      <point x="307.0" y="557.820895522"/>
      <point x="307" y="422" type="qcurve" smooth="yes"/>
      <point x="307.0" y="287.671641791"/>
      <point x="478.149253731" y="135.0"/>
    </contour>
    <contour>
      <point x="608" y="850" type="qcurve" smooth="yes"/>
      <point x="719.940298507" y="850.0"/>
      <point x="872.0" y="979.582089552"/>
      <point x="872" y="1096" type="qcurve" smooth="yes"/>
      <point x="872.0" y="1205.70149254"/>
      <point x="728.895522388" y="1339.0"/>
      <point x="608" y="1339" type="qcurve" smooth="yes"/>
      <point x="487.104477612" y="1339.0"/>
      <point x="346.0" y="1205.2238806"/>
      <point x="346" y="1100" type="qcurve" smooth="yes"/>
      <point x="346.0" y="986.567164179"/>
      <point x="496.805970149" y="850.0"/>
    </contour>
  </outline>
</glyph>
<glyph name="nine" format="1">
  <advance width="1183.744"/>
  <unicode hex="0039"/>
  <outline>
    <contour>
      <point x="586" y="1499" type="qcurve" smooth="yes"/>
      <point x="816.597014925" y="1499.0"/>
      <point x="1098.0" y="1228.89552239"/>
      <point x="1098" y="958" type="qcurve" smooth="yes"/>
      <point x="1098.0" y="708.0"/>
      <point x="845.626865672" y="204.47761194"/>
      <point x="621" y="0" type="qcurve"/>
      <point x="340" y="0" type="line"/>
      <point x="557.164179104" y="167.910447761"/>
      <point x="829.940298507" y="545.28358209"/>
      <point x="868" y="702" type="qcurve"/>
      <point x="854" y="702" type="line"/>
      <point x="788.328358209" y="627.373134328"/>
      <point x="620.388059701" y="539.0"/>
      <point x="498" y="539" type="qcurve" smooth="yes"/>
      <point x="314.417910448" y="539.0"/>
      <point x="59.0" y="780.104477612"/>
      <point x="59" y="1001" type="qcurve" smooth="yes"/>
      <point x="59.0" y="1229.35820896"/>
      <point x="354.656716418" y="1499.0"/>
    </contour>
    <contour>
      <point x="569" y="696" type="qcurve" smooth="yes"/>
      <point x="707.059701493" y="696.0"/>
      <point x="872.0" y="883.164179104"/>
      <point x="872" y="1016" type="qcurve" smooth="yes"/>
      <point x="872.0" y="1157.79104478"/>
      <point x="711.343283582" y="1339.0"/>
      <point x="580" y="1339" type="qcurve" smooth="yes"/>
      <point x="447.910447761" y="1339.0"/>
      <point x="285.0" y="1158.7761194"/>
      <point x="285" y="1014" type="qcurve" smooth="yes"/>
      <point x="285.0" y="871.462686567"/>
      <point x="434.671641791" y="696.0"/>
    </contour>
  </outline>
</glyph>
<glyph name="semicolon" format="1">
  <advance width="462.848"/>
  <unicode hex="003B"/>
  <outline>
    <contour>
      <point x="236" y="1085" type="qcurve" smooth="yes"/>
      <point x="294.955223881" y="1085.0"/>
      <point x="375.0" y="1005.70149254"/>
      <point x="375" y="946" type="qcurve" smooth="yes"/>
      <point x="375.0" y="886.298507463"/>
      <point x="294.955223881" y="807.0"/>
      <point x="236" y="807" type="qcurve" smooth="yes"/>
      <point x="176.298507463" y="807.0"/>
      <point x="98.0" y="886.298507463"/>
      <point x="98" y="946" type="qcurve" smooth="yes"/>
      <point x="98.0" y="1005.70149254"/>
      <point x="176.298507463" y="1085.0"/>
    </contour>
    <contour>
      <point x="121" y="266" type="line"/>
      <point x="362" y="266" type="line"/>
      <point x="186" y="-240" type="line"/>
      <point x="59" y="-240" type="line"/>
    </contour>
  </outline>
</glyph>
<glyph name="equal" format="1">
  <advance width="1228.8"/>
  <unicode hex="003D"/>
  <outline>
    <contour>
      <point x="1112" y="569" type="line"/>
      <point x="1112" y="377" type="line"/>
      <point x="117" y="377" type="line"/>
      <point x="117" y="569" type="line"/>
    </contour>
    <contour>
      <point x="1112" y="1077" type="line"/>
      <point x="1112" y="885" type="line"/>
      <point x="117" y="885" type="line"/>
      <point x="117" y="1077" type="line"/>
    </contour>
  </outline>
</glyph>
<glyph name="greater" format="1">
  <advance width="1228.8"/>
  <unicode hex="003E"/>
  <outline>
    <contour>
      <point x="1137" y="819" type="line"/>
      <point x="1137" y="635" type="line"/>
      <point x="106" y="182" type="line"/>
      <point x="106" y="381" type="line"/>
      <point x="924" y="727" type="line"/>
      <point x="106" y="1073" type="line"/>
      <point x="106" y="1272" type="line"/>
    </contour>
  </outline>
</glyph>
<glyph name="question" format="1">
  <advance width="960.512"/>
  <unicode hex="003F"/>
  <outline>
    <contour>
      <point x="483" y="1499" type="qcurve" smooth="yes"/>
      <point x="671.059701493" y="1499.0"/>
      <point x="883.0" y="1298.49253731"/>
      <point x="883" y="1147" type="qcurve" smooth="yes"/>
      <point x="883.0" y="1020.13432836"/>
      <point x="778.179104478" y="866.268656716"/>
      <point x="664" y="770" type="qcurve" smooth="yes"/>
      <point x="578.179104478" y="698.358208955"/>
      <point x="508.47761194" y="573.149253731"/>
      <point x="504" y="453" type="qcurve"/>
      <point x="365" y="453" type="line"/>
      <point x="353.805970149" y="619.417910448"/>
      <point x="418.746268657" y="785.208955224"/>
      <point x="518" y="877" type="qcurve" smooth="yes"/>
      <point x="592.626865672" y="944.164179104"/>
      <point x="659.0" y="1064.6119403"/>
      <point x="659" y="1137" type="qcurve" smooth="yes"/>
      <point x="659.0" y="1219.08955224"/>
      <point x="561.805970149" y="1325.0"/>
      <point x="473" y="1325" type="qcurve" smooth="yes"/>
      <point x="379.71641791" y="1325.0"/>
      <point x="257.985074627" y="1220.89552239"/>
      <point x="205" y="1100" type="qcurve"/>
      <point x="35" y="1178" type="line"/>
      <point x="97.6865671642" y="1330.23880597"/>
      <point x="306.134328358" y="1499.0"/>
    </contour>
    <contour>
      <point x="432" y="254" type="qcurve" smooth="yes"/>
      <point x="490.208955224" y="254.0"/>
      <point x="567.0" y="177.208955224"/>
      <point x="567" y="119" type="qcurve" smooth="yes"/>
      <point x="567.0" y="62.2835820896"/>
      <point x="490.208955224" y="-14.0"/>
      <point x="432" y="-14" type="qcurve" smooth="yes"/>
      <point x="375.28358209" y="-14.0"/>
      <point x="299.0" y="62.2835820896"/>
      <point x="299" y="119" type="qcurve" smooth="yes"/>
      <point x="299.0" y="177.208955224"/>
      <point x="375.28358209" y="254.0"/>
    </contour>
  </outline>
</glyph>
<glyph name="at" format="1">
  <advance width="2043.904"/>
  <unicode hex="0040"/>
  <outline>
    <contour>
      <point x="1063" y="1499" type="qcurve" smooth="yes"/>
      <point x="1427.92537313" y="1499.0"/>
      <point x="1931.0" y="1050.65671642"/>
      <point x="1931" y="682" type="qcurve" smooth="yes"/>
      <point x="1931.0" y="400.656716418"/>
      <point x="1635.04477612" y="57.0"/>
      <point x="1444" y="57" type="qcurve" smooth="yes"/>
      <point x="1320.11940299" y="57.0"/>
      <point x="1189.94029851" y="192.791044776"/>
      <point x="1178" y="301" type="qcurve"/>
      <point x="1167" y="301" type="line"/>
      <point x="1099.8358209" y="188.313432836"/>
      <point x="923.776119403" y="57.0"/>
      <point x="829" y="57" type="qcurve" smooth="yes"/>
      <point x="710.343283582" y="57.0"/>
      <point x="569.0" y="239.059701493"/>
      <point x="569" y="401" type="qcurve" smooth="yes"/>
      <point x="569.0" y="638.313432836"/>
      <point x="784.402985075" y="1057.0"/>
      <point x="965" y="1057" type="qcurve" smooth="yes"/>
      <point x="1073.20895522" y="1057.0"/>
      <point x="1193.92537313" y="927.0"/>
      <point x="1229" y="827" type="qcurve"/>
      <point x="1237" y="825" type="line"/>
      <point x="1276" y="1055" type="line"/>
      <point x="1470" y="1014" type="line"/>
      <point x="1358" y="383" type="line" smooth="yes"/>
      <point x="1339.34328358" y="282.253731343"/>
      <point x="1408.2238806" y="143.0"/>
      <point x="1503" y="143" type="qcurve" smooth="yes"/>
      <point x="1634.34328358" y="143.0"/>
      <point x="1847.0" y="448.895522388"/>
      <point x="1847" y="678" type="qcurve" smooth="yes"/>
      <point x="1847.0" y="1022.02985075"/>
      <point x="1404.01492537" y="1427.0"/>
      <point x="1057" y="1427" type="qcurve" smooth="yes"/>
      <point x="695.805970149" y="1427.0"/>
      <point x="199.0" y="911.417910448"/>
      <point x="199" y="545" type="qcurve" smooth="yes"/>
      <point x="199.0" y="158.432835821"/>
      <point x="660.388059701" y="-322.0"/>
      <point x="1038" y="-322" type="qcurve" smooth="yes"/>
      <point x="1223.07462687" y="-322.0"/>
      <point x="1506.17910448" y="-246.626865672"/>
      <point x="1642" y="-172" type="qcurve"/>
      <point x="1679" y="-233" type="line"/>
      <point x="1537.20895522" y="-309.865671642"/>
      <point x="1232.50746269" y="-393.0"/>
      <point x="1034" y="-393" type="qcurve" smooth="yes"/>
      <point x="621.313432836" y="-393.0"/>
      <point x="113.0" y="122.850746269"/>
      <point x="113" y="543" type="qcurve" smooth="yes"/>
      <point x="113.0" y="945.985074627"/>
      <point x="674.940298507" y="1499.0"/>
    </contour>
    <contour>
      <point x="922" y="184" type="qcurve" smooth="yes"/>
      <point x="1028.71641791" y="184.0"/>
      <point x="1204.0" y="492.865671642"/>
      <point x="1204" y="666" type="qcurve" smooth="yes"/>
      <point x="1204.0" y="762.268656716"/>
      <point x="1111.34328358" y="915.0"/>
      <point x="1030" y="915" type="qcurve" smooth="yes"/>
      <point x="921.791044776" y="915.0"/>
      <point x="770.0" y="617.462686567"/>
      <point x="770" y="410" type="qcurve" smooth="yes"/>
      <point x="770.0" y="307.014925373"/>
      <point x="848.119402985" y="184.0"/>
    </contour>
  </outline>
</glyph>
<glyph name="A" format="1">
  <advance width="1384.448"/>
  <unicode hex="0041"/>
  <outline>
    <contour>
      <point x="848" y="1481" type="line"/>
      <point x="1339" y="0" type="line"/>
      <point x="1100" y="0" type="line"/>
      <point x="987" y="365" type="line"/>
      <point x="391" y="365" type="line"/>
      <point x="276" y="0" type="line"/>
      <point x="45" y="0" type="line"/>
      <point x="539" y="1481" type="line"/>
    </contour>
    <contour>
      <point x="432" y="522" type="line"/>
      <point x="946" y="522" type="line"/>
      <point x="696" y="1305" type="line"/>
      <point x="682" y="1305" type="line"/>
    </contour>
  </outline>
</glyph>
<glyph name="B" format="1">
  <advance width="1263.616"/>
  <unicode hex="0042"/>
  <outline>
    <contour>
      <point x="879" y="786" type="line"/>
      <point x="1020.79104478" y="749.432835821"/>
      <point x="1194.0" y="573.432835821"/>
      <point x="1194" y="410" type="qcurve" smooth="yes"/>
      <point x="1194.0" y="212.23880597"/>
      <point x="902.597014925" y="0.0"/>
      <point x="672" y="0" type="qcurve" smooth="yes"/>
      <point x="147" y="0" type="line"/>
      <point x="147" y="1475" type="line"/>
      <point x="680" y="1475" type="line" smooth="yes"/>
      <point x="892.686567164" y="1475.0"/>
      <point x="1141.0" y="1285.40298507"/>
      <point x="1141" y="1116" type="qcurve" smooth="yes"/>
      <point x="1141.0" y="974.208955224"/>
      <point x="978.253731343" y="825.597014925"/>
      <point x="879" y="795" type="qcurve"/>
    </contour>
    <contour>
      <point x="639" y="170" type="line" smooth="yes"/>
      <point x="786.014925373" y="170.0"/>
      <point x="967.0" y="294.179104478"/>
      <point x="967" y="430" type="qcurve" smooth="yes"/>
      <point x="967.0" y="564.328358209"/>
      <point x="801.925373134" y="705.0"/>
      <point x="637" y="705" type="qcurve" smooth="yes"/>
      <point x="371" y="705" type="line"/>
      <point x="371" y="170" type="line"/>
    </contour>
    <contour>
      <point x="639" y="860" type="line" smooth="yes"/>
      <point x="765.865671642" y="860.0"/>
      <point x="913.0" y="973.582089552"/>
      <point x="913" y="1090" type="qcurve" smooth="yes"/>
      <point x="913.0" y="1195.2238806"/>
      <point x="772.373134328" y="1305.0"/>
      <point x="647" y="1305" type="qcurve" smooth="yes"/>
      <point x="371" y="1305" type="line"/>
      <point x="371" y="860" type="line"/>
    </contour>
  </outline>
</glyph>
<glyph name="C" format="1">
  <advance width="1216.512"/>
  <unicode hex="0043"/>
  <outline>
    <contour>
      <point x="936" y="492" type="qcurve"/>
      <point x="1151" y="438" type="line"/>
      <point x="1106.97014925" y="227.552238806"/>
      <point x="858.164179104" y="-25.0"/>
      <point x="641" y="-25" type="qcurve" smooth="yes"/>
      <point x="391.746268657" y="-25.0"/>
      <point x="94.0" y="363.955223881"/>
      <point x="94" y="705" type="qcurve" smooth="yes"/>
      <point x="94" y="766" type="line" smooth="yes"/>
      <point x="94.0" y="1108.53731343"/>
      <point x="391.268656716" y="1499.0"/>
      <point x="645" y="1499" type="qcurve" smooth="yes"/>
      <point x="865.149253731" y="1499.0"/>
      <point x="1103.44776119" y="1251.50746269"/>
      <point x="1143" y="1053" type="qcurve"/>
      <point x="922" y="997" type="line"/>
      <point x="889.910447761" y="1157.44776119"/>
      <point x="759.925373134" y="1319.0"/>
      <point x="645" y="1319" type="qcurve" smooth="yes"/>
      <point x="486.044776119" y="1319.0"/>
      <point x="336.0" y="1023.59701493"/>
      <point x="336" y="793" type="qcurve" smooth="yes"/>
      <point x="336" y="684" type="line" smooth="yes"/>
      <point x="336.0" y="453.402985075"/>
      <point x="486.552238806" y="156.0"/>
      <point x="647" y="156" type="qcurve" smooth="yes"/>
      <point x="767.895522388" y="156.0"/>
      <point x="903.910447761" y="330.805970149"/>
    </contour>
  </outline>
</glyph>
<glyph name="D" format="1">
  <advance width="1290.24"/>
  <unicode hex="0044"/>
  <outline>
    <contour>
      <point x="1198" y="762" type="qcurve" smooth="yes"/>
      <point x="1198" y="715" type="line" smooth="yes"/>
      <point x="1198.0" y="372.462686567"/>
      <point x="861.029850746" y="0.0"/>
      <point x="567" y="0" type="qcurve" smooth="yes"/>
      <point x="147" y="0" type="line"/>
      <point x="147" y="1475" type="line"/>
      <point x="573" y="1475" type="line" smooth="yes"/>
      <point x="868.52238806" y="1475.0"/>
      <point x="1198.0" y="1103.04477612"/>
    </contour>
    <contour>
      <point x="565" y="180" type="line" smooth="yes"/>
      <point x="751.567164179" y="180.0"/>
      <point x="956.0" y="441.76119403"/>
      <point x="956" y="694" type="qcurve" smooth="yes"/>
      <point x="956" y="778" type="line" smooth="yes"/>
      <point x="956.0" y="1031.73134328"/>
      <point x="754.52238806" y="1294.0"/>
      <point x="559" y="1294" type="qcurve" smooth="yes"/>
      <point x="377" y="1294" type="line"/>
      <point x="377" y="180" type="line"/>
    </contour>
  </outline>
</glyph>
<glyph name="F" format="1">
  <advance width="1083.392"/>
  <unicode hex="0046"/>
  <outline>
    <contour>
      <point x="1038" y="1475" type="line"/>
      <point x="1038" y="1292" type="line"/>
      <point x="381" y="1292" type="line"/>
      <point x="381" y="819" type="line"/>
      <point x="885" y="819" type="line"/>
      <point x="885" y="641" type="line"/>
      <point x="381" y="641" type="line"/>
      <point x="381" y="0" type="line"/>
      <point x="147" y="0" type="line"/>
      <point x="147" y="1475" type="line"/>
    </contour>
  </outline>
</glyph>
<glyph name="L" format="1">
  <advance width="1062.912"/>
  <unicode hex="004C"/>
  <outline>
    <contour>
      <point x="1026" y="195" type="line"/>
      <point x="1026" y="0" type="line"/>
      <point x="147" y="0" type="line"/>
      <point x="147" y="1475" type="line"/>
      <point x="381" y="1475" type="line"/>
      <point x="381" y="195" type="line"/>
    </contour>
  </outline>
</glyph>
<glyph name="M" format="1">
  <advance width="1755.136"/>
  <unicode hex="004D"/>
  <outline>
    <contour>
      <point x="1610" y="1475" type="line"/>
      <point x="1610" y="0" type="line"/>
      <point x="1391" y="0" type="line"/>
      <point x="1391" y="1231" type="line"/>
      <point x="1372" y="1231" type="line"/>
      <point x="995" y="0" type="line"/>
      <point x="754" y="0" type="line"/>
      <point x="375" y="1231" type="line"/>
      <point x="358" y="1231" type="line"/>
      <point x="358" y="0" type="line"/>
      <point x="147" y="0" type="line"/>
      <point x="147" y="1475" type="line"/>
      <point x="518" y="1475" type="line"/>
      <point x="874" y="299" type="line"/>
      <point x="889" y="299" type="line"/>
      <point x="1245" y="1475" type="line"/>
    </contour>
  </outline>
</glyph>
<glyph name="O" format="1">
  <advance width="1292.288"/>
  <unicode hex="004F"/>
  <outline>
    <contour>
      <point x="1198" y="770" type="qcurve" smooth="yes"/>
      <point x="1198" y="709" type="line" smooth="yes"/>
      <point x="1198.0" y="366.462686567"/>
      <point x="900.223880597" y="-25.0"/>
      <point x="645" y="-25" type="qcurve" smooth="yes"/>
      <point x="391.268656716" y="-25.0"/>
      <point x="94.0" y="363.955223881"/>
      <point x="94" y="705" type="qcurve" smooth="yes"/>
      <point x="94" y="766" type="line" smooth="yes"/>
      <point x="94.0" y="1108.53731343"/>
      <point x="391.268656716" y="1499.0"/>
      <point x="645" y="1499" type="qcurve" smooth="yes"/>
      <point x="900.223880597" y="1499.0"/>
      <point x="1198.0" y="1111.04477612"/>
    </contour>
    <contour>
      <point x="645" y="156" type="qcurve" smooth="yes"/>
      <point x="802.462686567" y="156.0"/>
      <point x="956.0" y="443.194029851"/>
      <point x="956" y="682" type="qcurve" smooth="yes"/>
      <point x="956" y="791" type="line" smooth="yes"/>
      <point x="956.0" y="1027.56716418"/>
      <point x="802.462686567" y="1319.0"/>
      <point x="645" y="1319" type="qcurve" smooth="yes"/>
      <point x="489.029850746" y="1319.0"/>
      <point x="336.0" y="1029.56716418"/>
      <point x="336" y="793" type="qcurve" smooth="yes"/>
      <point x="336" y="684" type="line" smooth="yes"/>
      <point x="336.0" y="445.940298507"/>
      <point x="489.029850746" y="156.0"/>
    </contour>
  </outline>
</glyph>
<glyph name="P" format="1">
  <advance width="1189.888"/>
  <unicode hex="0050"/>
  <outline>
    <contour>
      <point x="618" y="1475" type="line" smooth="yes"/>
      <point x="853.820895522" y="1475.0"/>
      <point x="1126.0" y="1256.68656716"/>
      <point x="1126" y="1044" type="qcurve" smooth="yes"/>
      <point x="1126.0" y="826.089552239"/>
      <point x="853.253731343" y="596.0"/>
      <point x="604" y="596" type="qcurve" smooth="yes"/>
      <point x="381" y="596" type="line"/>
      <point x="381" y="0" type="line"/>
      <point x="147" y="0" type="line"/>
      <point x="147" y="1475" type="line"/>
    </contour>
    <contour>
      <point x="600" y="770" type="line" smooth="yes"/>
      <point x="740.298507463" y="770.0"/>
      <point x="893.0" y="907.164179104"/>
      <point x="893" y="1040" type="qcurve" smooth="yes"/>
      <point x="893.0" y="1168.35820896"/>
      <point x="741.014925373" y="1305.0"/>
      <point x="594" y="1305" type="qcurve" smooth="yes"/>
      <point x="373" y="1305" type="line"/>
      <point x="373" y="770" type="line"/>
    </contour>
  </outline>
</glyph>
<glyph name="Q" format="1">
  <advance width="1292.288"/>
  <unicode hex="0051"/>
  <outline>
    <contour>
      <point x="1274" y="-68" type="qcurve"/>
      <point x="1274" y="-217" type="line"/>
      <point x="1253.85074627" y="-222.970149254"/>
      <point x="1210.62686567" y="-227.0"/>
      <point x="1186" y="-227" type="qcurve" smooth="yes"/>
      <point x="1100.17910448" y="-227.0"/>
      <point x="988.23880597" y="-171.850746269"/>
      <point x="936" y="-92" type="qcurve" smooth="yes"/>
      <point x="862" y="20" type="line"/>
      <point x="825.432835821" y="0.597014925373"/>
      <point x="709.179104478" y="-25.0"/>
      <point x="645" y="-25" type="qcurve" smooth="yes"/>
      <point x="391.268656716" y="-25.0"/>
      <point x="94.0" y="363.955223881"/>
      <point x="94" y="705" type="qcurve" smooth="yes"/>
      <point x="94" y="766" type="line" smooth="yes"/>
      <point x="94.0" y="1108.53731343"/>
      <point x="391.268656716" y="1499.0"/>
      <point x="645" y="1499" type="qcurve" smooth="yes"/>
      <point x="900.223880597" y="1499.0"/>
      <point x="1198.0" y="1111.04477612"/>
      <point x="1198" y="770" type="qcurve" smooth="yes"/>
      <point x="1198" y="709" type="line" smooth="yes"/>
      <point x="1198.0" y="467.208955224"/>
      <point x="1071.29850746" y="178.328358209"/>
      <point x="981" y="94" type="qcurve"/>
      <point x="1053" y="0" type="line" smooth="yes"/>
      <point x="1083.59701493" y="-39.552238806"/>
      <point x="1146.23880597" y="-78.0"/>
      <point x="1194" y="-78" type="qcurve" smooth="yes"/>
      <point x="1212.65671642" y="-78.0"/>
      <point x="1253.85074627" y="-72.4776119403"/>
    </contour>
    <contour>
      <point x="860" y="250" type="line"/>
      <point x="909.253731343" y="312.686567164"/>
      <point x="956.0" y="531.910447761"/>
      <point x="956" y="664" type="qcurve" smooth="yes"/>
      <point x="956" y="791" type="line" smooth="yes"/>
      <point x="956.0" y="1027.56716418"/>
      <point x="802.462686567" y="1319.0"/>
      <point x="645" y="1319" type="qcurve" smooth="yes"/>
      <point x="489.029850746" y="1319.0"/>
      <point x="336.0" y="1029.56716418"/>
      <point x="336" y="793" type="qcurve" smooth="yes"/>
      <point x="336" y="668" type="line" smooth="yes"/>
      <point x="336.0" y="429.194029851"/>
      <point x="489.029850746" y="137.0"/>
      <point x="645" y="137" type="qcurve" smooth="yes"/>
      <point x="689.776119403" y="137.0"/>
      <point x="752.358208955" y="154.567164179"/>
      <point x="774" y="168" type="qcurve"/>
      <point x="602" y="424" type="line"/>
      <point x="688" y="479" type="line"/>
    </contour>
  </outline>
</glyph>
<glyph name="S" format="1">
  <advance width="1189.888"/>
  <unicode hex="0053"/>
  <outline>
    <contour>
      <point x="655" y="856" type="qcurve" smooth="yes"/>
      <point x="915.447761194" y="778.388059701"/>
      <point x="1108.0" y="567.149253731"/>
      <point x="1108" y="397" type="qcurve" smooth="yes"/>
      <point x="1108.0" y="191.029850746"/>
      <point x="821.671641791" y="-23.0"/>
      <point x="606" y="-23" type="qcurve" smooth="yes"/>
      <point x="407.492537313" y="-23.0"/>
      <point x="144.119402985" y="132.014925373"/>
      <point x="68" y="285" type="qcurve"/>
      <point x="223" y="410" type="line"/>
      <point x="285.686567164" y="281.641791045"/>
      <point x="483.641791045" y="154.0"/>
      <point x="612" y="154" type="qcurve" smooth="yes"/>
      <point x="735.880597015" y="154.0"/>
      <point x="893.0" y="268.52238806"/>
      <point x="893" y="373" type="qcurve" smooth="yes"/>
      <point x="893.0" y="470.76119403"/>
      <point x="757.985074627" y="595.298507463"/>
      <point x="555" y="655" type="qcurve" smooth="yes"/>
      <point x="307.23880597" y="728.880597015"/>
      <point x="113.0" y="931.850746269"/>
      <point x="113" y="1102" type="qcurve" smooth="yes"/>
      <point x="113.0" y="1272.89552239"/>
      <point x="363.059701493" y="1497.0"/>
      <point x="575" y="1497" type="qcurve" smooth="yes"/>
      <point x="743.656716418" y="1497.0"/>
      <point x="981.626865672" y="1366.85074627"/>
      <point x="1057" y="1237" type="qcurve"/>
      <point x="901" y="1110" type="line"/>
      <point x="841.298507463" y="1209.25373134"/>
      <point x="684.432835821" y="1321.0"/>
      <point x="571" y="1321" type="qcurve" smooth="yes"/>
      <point x="450.850746269" y="1321.0"/>
      <point x="328.0" y="1204.35820896"/>
      <point x="328" y="1126" type="qcurve" smooth="yes"/>
      <point x="328.0" y="1034.95522388"/>
      <point x="460.970149254" y="915.701492537"/>
    </contour>
  </outline>
</glyph>
<glyph name="U" format="1">
  <advance width="1288.192"/>
  <unicode hex="0055"/>
  <outline>
    <contour>
      <point x="1153" y="1475" type="line"/>
      <point x="1153" y="524" type="line" smooth="yes"/>
      <point x="1153.0" y="235.194029851"/>
      <point x="866.134328358" y="-25.0"/>
      <point x="643" y="-25" type="qcurve" smooth="yes"/>
      <point x="418.373134328" y="-25.0"/>
      <point x="135.0" y="235.194029851"/>
      <point x="135" y="524" type="qcurve" smooth="yes"/>
      <point x="135" y="1475" type="line"/>
      <point x="369" y="1475" type="line"/>
      <point x="369" y="518" type="line" smooth="yes"/>
      <point x="369.0" y="328.447761194"/>
      <point x="524.134328358" y="162.0"/>
      <point x="651" y="162" type="qcurve" smooth="yes"/>
      <point x="777.865671642" y="162.0"/>
      <point x="932.0" y="324.447761194"/>
      <point x="932" y="514" type="qcurve" smooth="yes"/>
      <point x="932" y="1475" type="line"/>
    </contour>
  </outline>
</glyph>
<glyph name="V" format="1">
  <advance width="1306.624"/>
  <unicode hex="0056"/>
  <outline>
    <contour>
      <point x="1026" y="1475" type="line"/>
      <point x="1262" y="1475" type="line"/>
      <point x="784" y="-12" type="line"/>
      <point x="522" y="-12" type="line"/>
      <point x="45" y="1475" type="line"/>
      <point x="289" y="1475" type="line"/>
      <point x="651" y="236" type="line"/>
      <point x="662" y="236" type="line"/>
    </contour>
  </outline>
</glyph>
<glyph name="Z" format="1">
  <advance width="1140.736"/>
  <unicode hex="005A"/>
  <outline>
    <contour>
      <point x="1071" y="182" type="line"/>
      <point x="1071" y="0" type="line"/>
      <point x="68" y="0" type="line"/>
      <point x="68" y="160" type="line"/>
      <point x="805" y="1292" type="line"/>
      <point x="104" y="1292" type="line"/>
      <point x="104" y="1475" type="line"/>
      <point x="1071" y="1475" type="line"/>
      <point x="1071" y="1315" type="line"/>
      <point x="336" y="182" type="line"/>
    </contour>
  </outline>
</glyph>
<glyph name="e" format="1">
  <advance width="985.088"/>
  <unicode hex="0065"/>
  <outline>
    <contour>
      <point x="842" y="246" type="qcurve"/>
      <point x="907" y="113" type="line"/>
      <point x="820.432835821" y="50.3134328358"/>
      <point x="641.402985075" y="-18.0"/>
      <point x="522" y="-18" type="qcurve" smooth="yes"/>
      <point x="319.014925373" y="-18.0"/>
      <point x="74.0" y="265.791044776"/>
      <point x="74" y="524" type="qcurve" smooth="yes"/>
      <point x="74" y="551" type="line" smooth="yes"/>
      <point x="74.0" y="794.28358209"/>
      <point x="309.940298507" y="1094.0"/>
      <point x="498" y="1094" type="qcurve" smooth="yes"/>
      <point x="689.044776119" y="1094.0"/>
      <point x="907.0" y="797.746268657"/>
      <point x="907" y="547" type="qcurve" smooth="yes"/>
      <point x="907" y="489" type="line"/>
      <point x="281" y="489" type="line"/>
      <point x="286.970149254" y="307.656716418"/>
      <point x="433.597014925" y="135.0"/>
      <point x="553" y="135" type="qcurve" smooth="yes"/>
      <point x="629.119402985" y="135.0"/>
      <point x="768.119402985" y="190.776119403"/>
    </contour>
    <contour>
      <point x="281" y="592" type="qcurve"/>
      <point x="700" y="592" type="line"/>
      <point x="692.537313433" y="780.059701493"/>
      <point x="594.268656716" y="961.0"/>
      <point x="498" y="961" type="qcurve" smooth="yes"/>
      <point x="398.746268657" y="961.0"/>
      <point x="286.970149254" y="770.358208955"/>
    </contour>
  </outline>
</glyph>
<glyph name="g" format="1">
  <advance width="1085.44"/>
  <unicode hex="0067"/>
  <outline>
    <contour>
      <point x="961" y="1044" type="line"/>
      <point x="961" y="57" type="line" smooth="yes"/>
      <point x="961.0" y="-187.029850746"/>
      <point x="717.671641791" y="-389.0"/>
      <point x="502" y="-389" type="qcurve" smooth="yes"/>
      <point x="391.552238806" y="-389.0"/>
      <point x="240.71641791" y="-361.641791045"/>
      <point x="184" y="-340" type="qcurve"/>
      <point x="184" y="-182" type="line"/>
      <point x="238" y="-182" type="line"/>
      <point x="270.089552239" y="-217.074626866"/>
      <point x="386.76119403" y="-268.0"/>
      <point x="489" y="-268" type="qcurve" smooth="yes"/>
      <point x="602.432835821" y="-268.0"/>
      <point x="741.0" y="-138.955223881"/>
      <point x="741" y="20" type="qcurve" smooth="yes"/>
      <point x="741" y="215" type="line"/>
      <point x="731" y="215" type="line"/>
      <point x="668.313432836" y="108.28358209"/>
      <point x="526.71641791" y="-18.0"/>
      <point x="420" y="-18" type="qcurve" smooth="yes"/>
      <point x="270.0" y="-18.0"/>
      <point x="76.0" y="257.313432836"/>
      <point x="76" y="520" type="qcurve" smooth="yes"/>
      <point x="76" y="551" type="line" smooth="yes"/>
      <point x="76.0" y="812.194029851"/>
      <point x="279.970149254" y="1092.0"/>
      <point x="424" y="1092" type="qcurve" smooth="yes"/>
      <point x="530.71641791" y="1092.0"/>
      <point x="674.28358209" y="967.462686567"/>
      <point x="731" y="860" type="qcurve"/>
      <point x="741" y="860" type="line"/>
      <point x="741" y="1092" type="line"/>
    </contour>
    <contour>
      <point x="510" y="129" type="qcurve" smooth="yes"/>
      <point x="610.746268657" y="129.0"/>
      <point x="745.0" y="359.895522388"/>
      <point x="745" y="539" type="qcurve" smooth="yes"/>
      <point x="745.0" y="714.373134328"/>
      <point x="610.23880597" y="946.0"/>
      <point x="508" y="946" type="qcurve" smooth="yes"/>
      <point x="419.194029851" y="946.0"/>
      <point x="293.0" y="750.940298507"/>
      <point x="293" y="539" type="qcurve" smooth="yes"/>
      <point x="293.0" y="317.358208955"/>
      <point x="422.686567164" y="129.0"/>
    </contour>
  </outline>
</glyph>
<glyph name="i" format="1">
  <advance width="495.616"/>
  <unicode hex="0069"/>
  <outline>
    <contour>
      <point x="358" y="1073" type="line"/>
      <point x="358" y="0" type="line"/>
      <point x="139" y="0" type="line"/>
      <point x="139" y="1073" type="line"/>
    </contour>
    <contour>
      <point x="373" y="1483" type="line"/>
      <point x="373" y="1278" type="line"/>
      <point x="125" y="1278" type="line"/>
      <point x="125" y="1483" type="line"/>
    </contour>
  </outline>
</glyph>
<glyph name="k" format="1">
  <advance width="1024.0"/>
  <unicode hex="006B"/>
  <outline>
    <contour>
      <point x="600" y="547" type="line"/>
      <point x="1020" y="0" type="line"/>
      <point x="776" y="0" type="line"/>
      <point x="377" y="539" type="line"/>
      <point x="377" y="545" type="line"/>
      <point x="766" y="1073" type="line"/>
      <point x="1001" y="1073" type="line"/>
    </contour>
    <contour>
      <point x="344" y="1554" type="line"/>
      <point x="344" y="0" type="line"/>
      <point x="125" y="0" type="line"/>
      <point x="125" y="1507" type="line"/>
    </contour>
  </outline>
</glyph>
<glyph name="m" format="1">
  <advance width="1640.448"/>
  <unicode hex="006D"/>
  <outline>
    <contour>
      <point x="1528" y="827" type="qcurve" smooth="yes"/>
      <point x="1528" y="0" type="line"/>
      <point x="1309" y="0" type="line"/>
      <point x="1309" y="778" type="line" smooth="yes"/>
      <point x="1309.0" y="851.880597015"/>
      <point x="1246.68656716" y="928.0"/>
      <point x="1184" y="928" type="qcurve" smooth="yes"/>
      <point x="1124.29850746" y="928.0"/>
      <point x="997.194029851" y="830.791044776"/>
      <point x="936" y="739" type="qcurve"/>
      <point x="936" y="0" type="line"/>
      <point x="717" y="0" type="line"/>
      <point x="717" y="778" type="line" smooth="yes"/>
      <point x="717.0" y="851.880597015"/>
      <point x="654.686567164" y="928.0"/>
      <point x="592" y="928" type="qcurve" smooth="yes"/>
      <point x="532.298507463" y="928.0"/>
      <point x="405.194029851" y="830.791044776"/>
      <point x="344" y="739" type="qcurve"/>
      <point x="344" y="0" type="line"/>
      <point x="125" y="0" type="line"/>
      <point x="125" y="1044" type="line"/>
      <point x="344" y="1092" type="line"/>
      <point x="344" y="836" type="line"/>
      <point x="354" y="836" type="line"/>
      <point x="439.820895522" y="953.164179104"/>
      <point x="608.52238806" y="1085.0"/>
      <point x="713" y="1085" type="qcurve" smooth="yes"/>
      <point x="816.731343284" y="1085.0"/>
      <point x="934.0" y="964.23880597"/>
      <point x="934" y="862" type="qcurve" smooth="yes"/>
      <point x="934" y="836" type="line"/>
      <point x="946" y="836" type="line"/>
      <point x="1031.82089552" y="953.164179104"/>
      <point x="1199.02985075" y="1085.0"/>
      <point x="1305" y="1085" type="qcurve" smooth="yes"/>
      <point x="1416.19402985" y="1085.0"/>
      <point x="1528.0" y="947.895522388"/>
    </contour>
  </outline>
</glyph>
<glyph name="n" format="1">
  <advance width="1060.864"/>
  <unicode hex="006E"/>
  <outline>
    <contour>
      <point x="944" y="827" type="qcurve" smooth="yes"/>
      <point x="944" y="0" type="line"/>
      <point x="725" y="0" type="line"/>
      <point x="725" y="778" type="line" smooth="yes"/>
      <point x="725.0" y="851.880597015"/>
      <point x="660.686567164" y="928.0"/>
      <point x="598" y="928" type="qcurve" smooth="yes"/>
      <point x="538.298507463" y="928.0"/>
      <point x="406.686567164" y="830.791044776"/>
      <point x="344" y="739" type="qcurve"/>
      <point x="344" y="0" type="line"/>
      <point x="125" y="0" type="line"/>
      <point x="125" y="1044" type="line"/>
      <point x="344" y="1092" type="line"/>
      <point x="344" y="836" type="line"/>
      <point x="354" y="836" type="line"/>
      <point x="439.820895522" y="953.164179104"/>
      <point x="613.776119403" y="1085.0"/>
      <point x="719" y="1085" type="qcurve" smooth="yes"/>
      <point x="830.194029851" y="1085.0"/>
      <point x="944.0" y="947.895522388"/>
    </contour>
  </outline>
</glyph>
<glyph name="r" format="1">
  <advance width="804.864"/>
  <unicode hex="0072"/>
  <outline>
    <contour>
      <point x="774" y="1092" type="qcurve"/>
      <point x="774" y="860" type="line"/>
      <point x="641.164179104" y="836.865671642"/>
      <point x="422.358208955" y="676.970149254"/>
      <point x="344" y="571" type="qcurve"/>
      <point x="344" y="0" type="line"/>
      <point x="125" y="0" type="line"/>
      <point x="125" y="1044" type="line"/>
      <point x="344" y="1092" type="line"/>
      <point x="344" y="676" type="line"/>
      <point x="354" y="676" type="line"/>
      <point x="458.47761194" y="867.044776119"/>
      <point x="665.791044776" y="1073.34328358"/>
    </contour>
  </outline>
</glyph>
<glyph name="u" format="1">
  <advance width="1058.816"/>
  <unicode hex="0075"/>
  <outline>
    <contour>
      <point x="934" y="1073" type="line"/>
      <point x="934" y="29" type="line"/>
      <point x="713" y="-18" type="line"/>
      <point x="713" y="240" type="line"/>
      <point x="702" y="240" type="line"/>
      <point x="616.925373134" y="120.597014925"/>
      <point x="443.223880597" y="-12.0"/>
      <point x="338" y="-12" type="qcurve" smooth="yes"/>
      <point x="227.552238806" y="-12.0"/>
      <point x="115.0" y="125.104477612"/>
      <point x="115" y="246" type="qcurve" smooth="yes"/>
      <point x="115" y="1073" type="line"/>
      <point x="334" y="1073" type="line"/>
      <point x="334" y="295" type="line" smooth="yes"/>
      <point x="334.0" y="221.865671642"/>
      <point x="398.313432836" y="145.0"/>
      <point x="461" y="145" type="qcurve" smooth="yes"/>
      <point x="520.701492537" y="145.0"/>
      <point x="651.805970149" y="242.71641791"/>
      <point x="713" y="336" type="qcurve"/>
      <point x="713" y="1073" type="line"/>
    </contour>
  </outline>
</glyph>
<glyph name="x" format="1">
  <advance width="1030.144"/>
  <unicode hex="0078"/>
  <outline>
    <contour>
      <point x="629" y="555" type="line"/>
      <point x="985" y="0" type="line"/>
      <point x="748" y="0" type="line"/>
      <point x="508" y="395" type="line"/>
      <point x="264" y="0" type="line"/>
      <point x="47" y="0" type="line"/>
      <point x="401" y="539" type="line"/>
      <point x="57" y="1073" type="line"/>
      <point x="295" y="1073" type="line"/>
      <point x="522" y="694" type="line"/>
      <point x="756" y="1073" type="line"/>
      <point x="973" y="1073" type="line"/>
    </contour>
  </outline>
</glyph>
<glyph name="y" format="1">
  <advance width="1017.856"/>
  <unicode hex="0079"/>
  <outline>
    <contour>
      <point x="762" y="1073" type="line"/>
      <point x="979" y="1073" type="line"/>
      <point x="594" y="-117" type="line" smooth="yes"/>
      <point x="543.253731343" y="-274.462686567"/>
      <point x="381.850746269" y="-393.0"/>
      <point x="252" y="-393" type="qcurve" smooth="yes"/>
      <point x="187.820895522" y="-393.0"/>
      <point x="96.2835820896" y="-372.656716418"/>
      <point x="53" y="-354" type="qcurve"/>
      <point x="53" y="-201" type="line"/>
      <point x="104" y="-201" type="line"/>
      <point x="125.641791045" y="-236.074626866"/>
      <point x="182.492537313" y="-272.0"/>
      <point x="231" y="-272" type="qcurve" smooth="yes"/>
      <point x="286.223880597" y="-272.0"/>
      <point x="361.865671642" y="-204.671641791"/>
      <point x="385" y="-139" type="qcurve" smooth="yes"/>
      <point x="414" y="-57" type="line"/>
      <point x="41" y="1073" type="line"/>
      <point x="266" y="1073" type="line"/>
      <point x="514" y="207" type="line"/>
    </contour>
  </outline>
</glyph>
<glyph name="z" format="1">
  <advance width="897.024"/>
  <unicode hex="007A"/>
  <outline>
    <contour>
      <point x="840" y="152" type="line"/>
      <point x="840" y="0" type="line"/>
      <point x="57" y="0" type="line"/>
      <point x="57" y="133" type="line"/>
      <point x="590" y="918" type="line"/>
      <point x="88" y="918" type="line"/>
      <point x="88" y="1067" type="line"/>
      <point x="840" y="1067" type="line"/>
      <point x="840" y="936" type="line"/>
      <point x="307" y="152" type="line"/>
    </contour>
  </outline>
</glyph>
<glyph name="braceleft" format="1">
  <advance width="843.776"/>
  <unicode hex="007B"/>
  <outline>
    <contour>
      <point x="782" y="-61" type="line"/>
      <point x="782" y="-164" type="line"/>
      <point x="555" y="-164" type="line" smooth="yes"/>
      <point x="413.208955224" y="-164.0"/>
      <point x="266.0" y="-31.8805970149"/>
      <point x="266" y="92" type="qcurve" smooth="yes"/>
      <point x="266.0" y="160.656716418"/>
      <point x="307.0" y="337.328358209"/>
      <point x="307" y="403" type="qcurve" smooth="yes"/>
      <point x="307.0" y="511.955223881"/>
      <point x="153.925373134" y="604.0"/>
      <point x="39" y="604" type="qcurve"/>
      <point x="39" y="707" type="line"/>
      <point x="153.925373134" y="707.0"/>
      <point x="307.0" y="798.791044776"/>
      <point x="307" y="907" type="qcurve" smooth="yes"/>
      <point x="307.0" y="972.671641791"/>
      <point x="266.0" y="1149.59701493"/>
      <point x="266" y="1219" type="qcurve" smooth="yes"/>
      <point x="266.0" y="1342.13432836"/>
      <point x="413.208955224" y="1475.0"/>
      <point x="555" y="1475" type="qcurve" smooth="yes"/>
      <point x="782" y="1475" type="line"/>
      <point x="782" y="1372" type="line"/>
      <point x="639" y="1372" type="line" smooth="yes"/>
      <point x="554.671641791" y="1372.0"/>
      <point x="475.0" y="1286.1641791"/>
      <point x="475" y="1219" type="qcurve" smooth="yes"/>
      <point x="475.0" y="1159.29850746"/>
      <point x="516.0" y="990.373134328"/>
      <point x="516" y="915" type="qcurve" smooth="yes"/>
      <point x="516.0" y="797.835820896"/>
      <point x="386.820895522" y="692.358208955"/>
      <point x="301" y="664" type="qcurve"/>
      <point x="301" y="647" type="line"/>
      <point x="386.820895522" y="617.895522388"/>
      <point x="516.0" y="512.910447761"/>
      <point x="516" y="395" type="qcurve" smooth="yes"/>
      <point x="516.0" y="320.373134328"/>
      <point x="475.0" y="151.701492537"/>
      <point x="475" y="92" type="qcurve" smooth="yes"/>
      <point x="475.0" y="24.8358208955"/>
      <point x="554.671641791" y="-61.0"/>
      <point x="639" y="-61" type="qcurve" smooth="yes"/>
    </contour>
  </outline>
</glyph>
<glyph name="braceright" format="1">
  <advance width="843.776"/>
  <unicode hex="007D"/>
  <outline>
    <contour>
      <point x="805" y="707" type="qcurve"/>
      <point x="805" y="604" type="line"/>
      <point x="690.074626866" y="604.0"/>
      <point x="537.0" y="511.955223881"/>
      <point x="537" y="403" type="qcurve" smooth="yes"/>
      <point x="537.0" y="337.328358209"/>
      <point x="578.0" y="160.656716418"/>
      <point x="578" y="92" type="qcurve" smooth="yes"/>
      <point x="578.0" y="-31.8805970149"/>
      <point x="430.28358209" y="-164.0"/>
      <point x="287" y="-164" type="qcurve" smooth="yes"/>
      <point x="59" y="-164" type="line"/>
      <point x="59" y="-61" type="line"/>
      <point x="205" y="-61" type="line" smooth="yes"/>
      <point x="287.089552239" y="-61.0"/>
      <point x="369.0" y="24.8358208955"/>
      <point x="369" y="92" type="qcurve" smooth="yes"/>
      <point x="369.0" y="151.701492537"/>
      <point x="328.0" y="320.373134328"/>
      <point x="328" y="395" type="qcurve" smooth="yes"/>
      <point x="328.0" y="512.910447761"/>
      <point x="457.179104478" y="617.895522388"/>
      <point x="543" y="647" type="qcurve"/>
      <point x="543" y="664" type="line"/>
      <point x="457.179104478" y="692.358208955"/>
      <point x="328.0" y="797.835820896"/>
      <point x="328" y="915" type="qcurve" smooth="yes"/>
      <point x="328.0" y="990.373134328"/>
      <point x="369.0" y="1159.29850746"/>
      <point x="369" y="1219" type="qcurve" smooth="yes"/>
      <point x="369.0" y="1286.1641791"/>
      <point x="287.089552239" y="1372.0"/>
      <point x="205" y="1372" type="qcurve" smooth="yes"/>
      <point x="59" y="1372" type="line"/>
      <point x="59" y="1475" type="line"/>
      <point x="287" y="1475" type="line" smooth="yes"/>
      <point x="430.28358209" y="1475.0"/>
      <point x="578.0" y="1342.13432836"/>
      <point x="578" y="1219" type="qcurve" smooth="yes"/>
      <point x="578.0" y="1149.59701493"/>
      <point x="537.0" y="972.671641791"/>
      <point x="537" y="907" type="qcurve" smooth="yes"/>
      <point x="537.0" y="798.791044776"/>
      <point x="690.074626866" y="707.0"/>
    </contour>
  </outline>
</glyph>
<glyph name="copyright" format="1">
  <advance width="1695.744"/>
  <unicode hex="00A9"/>
  <outline>
    <contour>
      <point x="1004" y="627" type="qcurve"/>
      <point x="1147" y="590" type="line"/>
      <point x="1120.88059701" y="460.149253731"/>
      <point x="972.358208955" y="311.0"/>
      <point x="844" y="311" type="qcurve" smooth="yes"/>
      <point x="698.47761194" y="311.0"/>
      <point x="520.0" y="531.985074627"/>
      <point x="520" y="729" type="qcurve" smooth="yes"/>
      <point x="520" y="766" type="line" smooth="yes"/>
      <point x="520.0" y="961.52238806"/>
      <point x="697.492537313" y="1182.0"/>
      <point x="846" y="1182" type="qcurve" smooth="yes"/>
      <point x="977.343283582" y="1182.0"/>
      <point x="1118.37313433" y="1037.3880597"/>
      <point x="1143" y="915" type="qcurve"/>
      <point x="995" y="877" type="line"/>
      <point x="975.597014925" y="969.537313433"/>
      <point x="907.194029851" y="1059.0"/>
      <point x="846" y="1059" type="qcurve" smooth="yes"/>
      <point x="760.179104478" y="1059.0"/>
      <point x="682.0" y="902.388059701"/>
      <point x="682" y="780" type="qcurve" smooth="yes"/>
      <point x="682" y="715" type="line" smooth="yes"/>
      <point x="682.0" y="594.104477612"/>
      <point x="760.179104478" y="436.0"/>
      <point x="846" y="436" type="qcurve" smooth="yes"/>
      <point x="910.179104478" y="436.0"/>
      <point x="983.850746269" y="532.223880597"/>
    </contour>
    <contour>
      <point x="848" y="1499" type="qcurve" smooth="yes"/>
      <point x="1171.88059701" y="1499.0"/>
      <point x="1610.0" y="1060.88059701"/>
      <point x="1610" y="737" type="qcurve" smooth="yes"/>
      <point x="1610.0" y="414.611940299"/>
      <point x="1169.88059701" y="-25.0"/>
      <point x="846" y="-25" type="qcurve" smooth="yes"/>
      <point x="523.611940299" y="-25.0"/>
      <point x="86.0" y="413.119402985"/>
      <point x="86" y="737" type="qcurve" smooth="yes"/>
      <point x="86.0" y="1059.3880597"/>
      <point x="525.611940299" y="1499.0"/>
    </contour>
    <contour>
      <point x="848" y="47" type="qcurve" smooth="yes"/>
      <point x="1142.7761194" y="47.0"/>
      <point x="1528.0" y="442.223880597"/>
      <point x="1528" y="737" type="qcurve" smooth="yes"/>
      <point x="1528.0" y="1030.28358209"/>
      <point x="1140.7761194" y="1427.0"/>
      <point x="846" y="1427" type="qcurve" smooth="yes"/>
      <point x="552.71641791" y="1427.0"/>
      <point x="168.0" y="1032.52238806"/>
      <point x="168" y="737" type="qcurve" smooth="yes"/>
      <point x="168.0" y="443.71641791"/>
      <point x="554.71641791" y="47.0"/>
    </contour>
  </outline>
</glyph>
<glyph name="ordfeminine" format="1">
  <advance width="798.72"/>
  <unicode hex="00AA"/>
  <outline>
    <contour>
      <point x="723" y="821" type="qcurve"/>
      <point x="723" y="752" type="line"/>
      <point x="626.731343284" y="750.507462687"/>
      <point x="523.432835821" y="810.029850746"/>
      <point x="510" y="866" type="qcurve"/>
      <point x="460.746268657" y="807.791044776"/>
      <point x="352.194029851" y="750.0"/>
      <point x="291" y="750" type="qcurve" smooth="yes"/>
      <point x="209.656716418" y="750.0"/>
      <point x="92.0" y="847.223880597"/>
      <point x="92" y="942" type="qcurve" smooth="yes"/>
      <point x="92.0" y="1050.20895522"/>
      <point x="297.791044776" y="1183.01492537"/>
      <point x="506" y="1186" type="qcurve"/>
      <point x="506" y="1255" type="line" smooth="yes"/>
      <point x="506.0" y="1314.70149254"/>
      <point x="453.23880597" y="1374.0"/>
      <point x="401" y="1374" type="qcurve" smooth="yes"/>
      <point x="352.492537313" y="1374.0"/>
      <point x="248.179104478" y="1341.56716418"/>
      <point x="184" y="1305" type="qcurve"/>
      <point x="141" y="1403" type="line"/>
      <point x="209.656716418" y="1439.56716418"/>
      <point x="344.656716418" y="1485.0"/>
      <point x="426" y="1485" type="qcurve" smooth="yes"/>
      <point x="543.910447761" y="1485.0"/>
      <point x="651.0" y="1377.1641791"/>
      <point x="651" y="1260" type="qcurve" smooth="yes"/>
      <point x="651" y="905" type="line" smooth="yes"/>
      <point x="651.0" y="866.940298507"/>
      <point x="681.955223881" y="825.47761194"/>
    </contour>
    <contour>
      <point x="346" y="848" type="qcurve" smooth="yes"/>
      <point x="390.776119403" y="848.0"/>
      <point x="470.925373134" y="893.462686567"/>
      <point x="506" y="936" type="qcurve"/>
      <point x="506" y="1118" type="line"/>
      <point x="358.985074627" y="1115.01492537"/>
      <point x="238.0" y="1022.17910448"/>
      <point x="238" y="958" type="qcurve" smooth="yes"/>
      <point x="238.0" y="906.507462687"/>
      <point x="297.492537313" y="848.0"/>
    </contour>
    <contour>
      <point x="700" y="608" type="line"/>
      <point x="700" y="514" type="line"/>
      <point x="98" y="514" type="line"/>
      <point x="98" y="608" type="line"/>
    </contour>
  </outline>
</glyph>
<glyph name="degree" format="1">
  <advance width="819.2"/>
  <unicode hex="00B0"/>
  <outline>
    <contour>
      <point x="410" y="1483" type="qcurve" smooth="yes"/>
      <point x="544.328358209" y="1483.0"/>
      <point x="723.0" y="1308.32835821"/>
      <point x="723" y="1174" type="qcurve" smooth="yes"/>
      <point x="723.0" y="1038.92537313"/>
      <point x="544.328358209" y="864.0"/>
      <point x="410" y="864" type="qcurve" smooth="yes"/>
      <point x="274.925373134" y="864.0"/>
      <point x="96.0" y="1038.92537313"/>
      <point x="96" y="1174" type="qcurve" smooth="yes"/>
      <point x="96.0" y="1308.32835821"/>
      <point x="274.925373134" y="1483.0"/>
    </contour>
    <contour>
      <point x="410" y="971" type="qcurve" smooth="yes"/>
      <point x="493.582089552" y="971.0"/>
      <point x="600.0" y="1086.68656716"/>
      <point x="600" y="1174" type="qcurve" smooth="yes"/>
      <point x="600.0" y="1260.56716418"/>
      <point x="493.582089552" y="1374.0"/>
      <point x="410" y="1374" type="qcurve" smooth="yes"/>
      <point x="325.671641791" y="1374.0"/>
      <point x="219.0" y="1260.56716418"/>
      <point x="219" y="1174" type="qcurve" smooth="yes"/>
      <point x="219.0" y="1086.68656716"/>
      <point x="325.671641791" y="971.0"/>
    </contour>
  </outline>
</glyph>
<glyph name="paragraph" format="1">
  <advance width="1105.92"/>
  <unicode hex="00B6"/>
  <outline>
    <contour>
      <point x="952" y="1475" type="line"/>
      <point x="952" y="0" type="line"/>
      <point x="840" y="0" type="line"/>
      <point x="840" y="1372" type="line"/>
      <point x="647" y="1372" type="line"/>
      <point x="647" y="0" type="line"/>
      <point x="535" y="0" type="line"/>
      <point x="535" y="690" type="line"/>
      <point x="306.641791045" y="694.47761194"/>
      <point x="61.0" y="902.134328358"/>
      <point x="61" y="1079" type="qcurve" smooth="yes"/>
      <point x="61.0" y="1270.04477612"/>
      <point x="320.850746269" y="1475.0"/>
      <point x="541" y="1475" type="qcurve" smooth="yes"/>
    </contour>
  </outline>
</glyph>
<glyph name="periodcentered" format="1">
  <advance width="430.08"/>
  <unicode hex="00B7"/>
  <outline>
    <contour>
      <point x="215" y="709" type="qcurve" smooth="yes"/>
      <point x="274.701492537" y="709.0"/>
      <point x="354.0" y="628.701492537"/>
      <point x="354" y="569" type="qcurve" smooth="yes"/>
      <point x="354.0" y="509.298507463"/>
      <point x="274.701492537" y="430.0"/>
      <point x="215" y="430" type="qcurve" smooth="yes"/>
      <point x="155.298507463" y="430.0"/>
      <point x="78.0" y="509.298507463"/>
      <point x="78" y="569" type="qcurve" smooth="yes"/>
      <point x="78.0" y="628.701492537"/>
      <point x="155.298507463" y="709.0"/>
    </contour>
  </outline>
</glyph>
<glyph name="cedilla" format="1">
  <advance width="1024.0"/>
  <unicode hex="00B8"/>
  <outline>
    <contour>
      <point x="629" y="-88" type="qcurve" smooth="yes"/>
      <point x="699.149253731" y="-88.0"/>
      <point x="788.0" y="-146.791044776"/>
      <point x="788" y="-205" type="qcurve" smooth="yes"/>
      <point x="788.0" y="-302.76119403"/>
      <point x="551.268656716" y="-395.47761194"/>
      <point x="305" y="-391" type="qcurve"/>
      <point x="305" y="-336" type="line"/>
      <point x="493.059701493" y="-333.014925373"/>
      <point x="641.0" y="-277.776119403"/>
      <point x="641" y="-233" type="qcurve" smooth="yes"/>
      <point x="641.0" y="-207.626865672"/>
      <point x="601.567164179" y="-180.0"/>
      <point x="565" y="-180" type="qcurve" smooth="yes"/>
      <point x="534.402985075" y="-180.0"/>
      <point x="479.865671642" y="-191.805970149"/>
      <point x="453" y="-203" type="qcurve"/>
      <point x="397" y="-168" type="line"/>
      <point x="512" y="0" type="line"/>
      <point x="598" y="0" type="line"/>
      <point x="530" y="-102" type="line"/>
      <point x="550.149253731" y="-96.0298507463"/>
      <point x="599.895522388" y="-88.0"/>
    </contour>
  </outline>
</glyph>
<glyph name="guillemotright" format="1">
  <advance width="985.088"/>
  <unicode hex="00BB"/>
  <outline>
    <contour>
      <point x="193" y="922" type="line"/>
      <point x="518" y="537" type="line"/>
      <point x="193" y="152" type="line"/>
      <point x="63" y="152" type="line"/>
      <point x="287" y="537" type="line"/>
      <point x="63" y="922" type="line"/>
    </contour>
    <contour>
      <point x="612" y="922" type="line"/>
      <point x="938" y="537" type="line"/>
      <point x="612" y="152" type="line"/>
      <point x="483" y="152" type="line"/>
      <point x="707" y="537" type="line"/>
      <point x="483" y="922" type="line"/>
    </contour>
  </outline>
</glyph>
<glyph name="AE" format="1">
  <advance width="1918.976"/>
  <unicode hex="00C6"/>
  <outline>
    <contour>
      <point x="1849" y="182" type="line"/>
      <point x="1849" y="0" type="line"/>
      <point x="948" y="0" type="line"/>
      <point x="948" y="365" type="line"/>
      <point x="432" y="365" type="line"/>
      <point x="252" y="0" type="line"/>
      <point x="16" y="0" type="line"/>
      <point x="764" y="1475" type="line"/>
      <point x="1825" y="1475" type="line"/>
      <point x="1825" y="1292" type="line"/>
      <point x="1176" y="1292" type="line"/>
      <point x="1176" y="854" type="line"/>
      <point x="1686" y="854" type="line"/>
      <point x="1686" y="680" type="line"/>
      <point x="1176" y="680" type="line"/>
      <point x="1176" y="182" type="line"/>
    </contour>
    <contour>
      <point x="502" y="522" type="line"/>
      <point x="948" y="522" type="line"/>
      <point x="948" y="1298" type="line"/>
      <point x="893" y="1298" type="line"/>
    </contour>
  </outline>
</glyph>
<glyph name="multiply" format="1">
  <advance width="1228.8"/>
  <unicode hex="00D7"/>
  <outline>
    <contour>
      <point x="739" y="727" type="line"/>
      <point x="1108" y="367" type="line"/>
      <point x="975" y="233" type="line"/>
      <point x="614" y="602" type="line"/>
      <point x="254" y="233" type="line"/>
      <point x="121" y="367" type="line"/>
      <point x="489" y="727" type="line"/>
      <point x="121" y="1087" type="line"/>
      <point x="254" y="1221" type="line"/>
      <point x="614" y="852" type="line"/>
      <point x="975" y="1221" type="line"/>
      <point x="1108" y="1087" type="line"/>
    </contour>
  </outline>
</glyph>
<glyph name="germandbls" format="1">
  <advance width="1214.464"/>
  <unicode hex="00DF"/>
  <outline>
    <contour>
      <point x="776" y="844" type="line"/>
      <point x="918.537313433" y="802.208955224"/>
      <point x="1143.0" y="579.029850746"/>
      <point x="1143" y="385" type="qcurve" smooth="yes"/>
      <point x="1143.0" y="195.447761194"/>
      <point x="923.597014925" y="-16.0"/>
      <point x="743" y="-16" type="qcurve" smooth="yes"/>
      <point x="651.955223881" y="-16.0"/>
      <point x="531.268656716" y="24.9104477612"/>
      <point x="485" y="57" type="qcurve"/>
      <point x="526" y="197" type="line"/>
      <point x="564.805970149" y="166.402985075"/>
      <point x="646.313432836" y="133.0"/>
      <point x="709" y="133" type="qcurve" smooth="yes"/>
      <point x="800.044776119" y="133.0"/>
      <point x="928.0" y="265.597014925"/>
      <point x="928" y="385" type="qcurve" smooth="yes"/>
      <point x="928.0" y="548.432835821"/>
      <point x="712.059701493" y="747.880597015"/>
      <point x="524" y="774" type="qcurve"/>
      <point x="524" y="911" type="line"/>
      <point x="666.537313433" y="920.701492537"/>
      <point x="805.0" y="1074.53731343"/>
      <point x="805" y="1182" type="qcurve" smooth="yes"/>
      <point x="805.0" y="1278.26865672"/>
      <point x="687.701492537" y="1405.0"/>
      <point x="578" y="1405" type="qcurve" smooth="yes"/>
      <point x="463.074626866" y="1405.0"/>
      <point x="344.0" y="1249.31343284"/>
      <point x="344" y="1112" type="qcurve" smooth="yes"/>
      <point x="344" y="0" type="line"/>
      <point x="125" y="0" type="line"/>
      <point x="125" y="1087" type="line" smooth="yes"/>
      <point x="125.0" y="1312.37313433"/>
      <point x="372.805970149" y="1554.0"/>
      <point x="584" y="1554" type="qcurve" smooth="yes"/>
      <point x="791.462686567" y="1554.0"/>
      <point x="1018.0" y="1350.47761194"/>
      <point x="1018" y="1196" type="qcurve" smooth="yes"/>
      <point x="1018.0" y="1060.17910448"/>
      <point x="876.746268657" y="894.567164179"/>
      <point x="776" y="858" type="qcurve"/>
    </contour>
  </outline>
</glyph>
<glyph name="ccedilla" format="1">
  <advance width="956.416"/>
  <unicode hex="00E7"/>
  <outline>
    <contour>
      <point x="717" y="328" type="qcurve"/>
      <point x="905" y="283" type="line"/>
      <point x="862.462686567" y="143.447761194"/>
      <point x="682.313432836" y="-11.0447761194"/>
      <point x="545" y="-20" type="qcurve"/>
      <point x="489" y="-102" type="line"/>
      <point x="509.149253731" y="-96.0298507463"/>
      <point x="558.388059701" y="-88.0"/>
      <point x="586" y="-88" type="qcurve" smooth="yes"/>
      <point x="657.641791045" y="-88.0"/>
      <point x="748.0" y="-146.791044776"/>
      <point x="748" y="-205" type="qcurve" smooth="yes"/>
      <point x="748.0" y="-302.76119403"/>
      <point x="510.268656716" y="-395.47761194"/>
      <point x="264" y="-391" type="qcurve"/>
      <point x="264" y="-336" type="line"/>
      <point x="452.059701493" y="-333.014925373"/>
      <point x="600.0" y="-277.776119403"/>
      <point x="600" y="-233" type="qcurve" smooth="yes"/>
      <point x="600.0" y="-207.626865672"/>
      <point x="560.567164179" y="-180.0"/>
      <point x="524" y="-180" type="qcurve" smooth="yes"/>
      <point x="493.402985075" y="-180.0"/>
      <point x="439.611940299" y="-191.805970149"/>
      <point x="412" y="-203" type="qcurve"/>
      <point x="356" y="-168" type="line"/>
      <point x="459" y="-18" type="line"/>
      <point x="282.880597015" y="1.40298507463"/>
      <point x="74.0" y="290.895522388"/>
      <point x="74" y="520" type="qcurve" smooth="yes"/>
      <point x="74" y="551" type="line" smooth="yes"/>
      <point x="74.0" y="794.28358209"/>
      <point x="315.014925373" y="1094.0"/>
      <point x="518" y="1094" type="qcurve" smooth="yes"/>
      <point x="672.47761194" y="1094.0"/>
      <point x="859.447761194" y="938.76119403"/>
      <point x="899" y="791" type="qcurve"/>
      <point x="707" y="745" type="line"/>
      <point x="677.895522388" y="845.0"/>
      <point x="593.850746269" y="946.0"/>
      <point x="514" y="946" type="qcurve" smooth="yes"/>
      <point x="408.776119403" y="946.0"/>
      <point x="293.0" y="737.537313433"/>
      <point x="293" y="545" type="qcurve" smooth="yes"/>
      <point x="293" y="530" type="line" smooth="yes"/>
      <point x="293.0" y="337.462686567"/>
      <point x="409.791044776" y="127.0"/>
      <point x="518" y="127" type="qcurve" smooth="yes"/>
      <point x="589.641791045" y="127.0"/>
      <point x="683.417910448" y="223.52238806"/>
    </contour>
  </outline>
</glyph>
<glyph name="eth" format="1">
  <advance width="1048.576"/>
  <unicode hex="00F0"/>
  <outline>
    <contour>
      <point x="969" y="604" type="qcurve" smooth="yes"/>
      <point x="969" y="547" type="line" smooth="yes"/>
      <point x="969.0" y="284.313432836"/>
      <point x="731.701492537" y="-20.0"/>
      <point x="522" y="-20" type="qcurve" smooth="yes"/>
      <point x="314.537313433" y="-20.0"/>
      <point x="74.0" y="277.462686567"/>
      <point x="74" y="520" type="qcurve" smooth="yes"/>
      <point x="74" y="551" type="line" smooth="yes"/>
      <point x="74.0" y="794.28358209"/>
      <point x="288.910447761" y="1085.0"/>
      <point x="471" y="1085" type="qcurve" smooth="yes"/>
      <point x="576.223880597" y="1085.0"/>
      <point x="718.23880597" y="965.28358209"/>
      <point x="766" y="872" type="qcurve"/>
      <point x="778" y="872" type="line"/>
      <point x="763.074626866" y="997.373134328"/>
      <point x="647.358208955" y="1222.2238806"/>
      <point x="569" y="1317" type="qcurve"/>
      <point x="328" y="1196" type="line"/>
      <point x="328" y="1294" type="line"/>
      <point x="502" y="1384" type="line"/>
      <point x="471.402985075" y="1416.08955224"/>
      <point x="403.567164179" y="1476.88059701"/>
      <point x="367" y="1503" type="qcurve"/>
      <point x="547" y="1561" type="line"/>
      <point x="574.611940299" y="1534.88059701"/>
      <point x="631.626865672" y="1478.59701493"/>
      <point x="657" y="1448" type="qcurve"/>
      <point x="891" y="1561" type="line"/>
      <point x="891" y="1462" type="line"/>
      <point x="721" y="1376" type="line"/>
      <point x="826.223880597" y="1243.1641791"/>
      <point x="969.0" y="870.417910448"/>
    </contour>
    <contour>
      <point x="522" y="119" type="qcurve" smooth="yes"/>
      <point x="633.940298507" y="119.0"/>
      <point x="752.0" y="327.462686567"/>
      <point x="752" y="520" type="qcurve" smooth="yes"/>
      <point x="752" y="551" type="line" smooth="yes"/>
      <point x="752.0" y="745.029850746"/>
      <point x="633.940298507" y="954.0"/>
      <point x="522" y="954" type="qcurve" smooth="yes"/>
      <point x="410.805970149" y="954.0"/>
      <point x="293.0" y="745.537313433"/>
      <point x="293" y="553" type="qcurve" smooth="yes"/>
      <point x="293" y="522" type="line" smooth="yes"/>
      <point x="293.0" y="329.462686567"/>
      <point x="410.805970149" y="119.0"/>
    </contour>
  </outline>
</glyph>
<glyph name="divide" format="1">
  <advance width="1228.8"/>
  <unicode hex="00F7"/>
  <outline>
    <contour>
      <point x="614" y="422" type="qcurve" smooth="yes"/>
      <point x="672.208955224" y="422.0"/>
      <point x="752.0" y="345.208955224"/>
      <point x="752" y="287" type="qcurve" smooth="yes"/>
      <point x="752.0" y="228.791044776"/>
      <point x="672.208955224" y="150.0"/>
      <point x="614" y="150" type="qcurve" smooth="yes"/>
      <point x="556.537313433" y="150.0"/>
      <point x="477.0" y="228.791044776"/>
      <point x="477" y="287" type="qcurve" smooth="yes"/>
      <point x="477.0" y="345.208955224"/>
      <point x="556.537313433" y="422.0"/>
    </contour>
    <contour>
      <point x="614" y="1305" type="qcurve" smooth="yes"/>
      <point x="672.208955224" y="1305.0"/>
      <point x="752.0" y="1225.20895522"/>
      <point x="752" y="1167" type="qcurve" smooth="yes"/>
      <point x="752.0" y="1109.53731343"/>
      <point x="672.208955224" y="1032.0"/>
      <point x="614" y="1032" type="qcurve" smooth="yes"/>
      <point x="556.537313433" y="1032.0"/>
      <point x="477.0" y="1109.53731343"/>
      <point x="477" y="1167" type="qcurve" smooth="yes"/>
      <point x="477.0" y="1225.20895522"/>
      <point x="556.537313433" y="1305.0"/>
    </contour>
    <contour>
      <point x="1143" y="819" type="line"/>
      <point x="1143" y="635" type="line"/>
      <point x="86" y="635" type="line"/>
      <point x="86" y="819" type="line"/>
    </contour>
  </outline>
</glyph>
<glyph name="oslash" format="1">
  <advance width="1044.48"/>
  <unicode hex="00F8"/>
  <outline>
    <contour>
      <point x="969" y="553" type="qcurve" smooth="yes"/>
      <point x="969" y="524" type="line" smooth="yes"/>
      <point x="969.0" y="279.970149254"/>
      <point x="728.71641791" y="-20.0"/>
      <point x="522" y="-20" type="qcurve" smooth="yes"/>
      <point x="463.791044776" y="-20.0"/>
      <point x="363.776119403" y="6.37313432836"/>
      <point x="319" y="31" type="qcurve"/>
      <point x="207" y="-195" type="line"/>
      <point x="76" y="-195" type="line"/>
      <point x="227" y="88" type="line"/>
      <point x="153.865671642" y="159.641791045"/>
      <point x="74.0" y="381.194029851"/>
      <point x="74" y="520" type="qcurve" smooth="yes"/>
      <point x="74" y="551" type="line" smooth="yes"/>
      <point x="74.0" y="794.28358209"/>
      <point x="314.537313433" y="1094.0"/>
      <point x="522" y="1094" type="qcurve" smooth="yes"/>
      <point x="578.71641791" y="1094.0"/>
      <point x="680.970149254" y="1066.62686567"/>
      <point x="725" y="1042" type="qcurve"/>
      <point x="838" y="1268" type="line"/>
      <point x="969" y="1268" type="line"/>
      <point x="815" y="983" type="line"/>
      <point x="889.626865672" y="912.850746269"/>
      <point x="969.0" y="691.805970149"/>
    </contour>
    <contour>
      <point x="522" y="111" type="qcurve" smooth="yes"/>
      <point x="635.432835821" y="111.0"/>
      <point x="766.0" y="321.492537313"/>
      <point x="766" y="520" type="qcurve" smooth="yes"/>
      <point x="766" y="551" type="line" smooth="yes"/>
      <point x="766.0" y="628.611940299"/>
      <point x="733.865671642" y="759.23880597"/>
      <point x="707" y="807" type="qcurve"/>
      <point x="383" y="166" type="line"/>
      <point x="412.104477612" y="138.388059701"/>
      <point x="482.447761194" y="111.0"/>
    </contour>
    <contour>
      <point x="338" y="264" type="qcurve"/>
      <point x="659" y="907" type="line"/>
      <point x="632.134328358" y="934.611940299"/>
      <point x="561.552238806" y="963.0"/>
      <point x="522" y="963" type="qcurve" smooth="yes"/>
      <point x="409.313432836" y="963.0"/>
      <point x="279.0" y="751.507462687"/>
      <point x="279" y="553" type="qcurve" smooth="yes"/>
      <point x="279" y="522" type="line" smooth="yes"/>
      <point x="279.0" y="444.388059701"/>
      <point x="308.895522388" y="311.76119403"/>
    </contour>
  </outline>
</glyph>
<glyph name="dotlessi" format="1">
  <advance width="495.616"/>
  <unicode hex="0131"/>
  <outline>
    <contour>
      <point x="358" y="1073" type="line"/>
      <point x="358" y="0" type="line"/>
      <point x="139" y="0" type="line"/>
      <point x="139" y="1073" type="line"/>
    </contour>
  </outline>
</glyph>
<glyph name="lslash" format="1">
  <advance width="647.168"/>
  <unicode hex="0142"/>
  <outline>
    <contour>
      <point x="598" y="973" type="line"/>
      <point x="598" y="793" type="line"/>
      <point x="430" y="717" type="line"/>
      <point x="430" y="0" type="line"/>
      <point x="217" y="0" type="line"/>
      <point x="217" y="633" type="line"/>
      <point x="49" y="557" type="line"/>
      <point x="49" y="737" type="line"/>
      <point x="217" y="813" type="line"/>
      <point x="217" y="1507" type="line"/>
      <point x="430" y="1554" type="line"/>
      <point x="430" y="897" type="line"/>
    </contour>
  </outline>
</glyph>
<glyph name="oe" format="1">
  <advance width="1667.072"/>
  <unicode hex="0153"/>
  <outline>
    <contour>
      <point x="1524" y="246" type="qcurve"/>
      <point x="1589" y="113" type="line"/>
      <point x="1500.19402985" y="50.3134328358"/>
      <point x="1332.19402985" y="-18.0"/>
      <point x="1221" y="-18" type="qcurve" smooth="yes"/>
      <point x="1079.95522388" y="-18.0"/>
      <point x="911.791044776" y="113.611940299"/>
      <point x="870" y="236" type="qcurve"/>
      <point x="854" y="236" type="line"/>
      <point x="817.432835821" y="124.059701493"/>
      <point x="648.328358209" y="-20.0"/>
      <point x="514" y="-20" type="qcurve" smooth="yes"/>
      <point x="312.507462687" y="-20.0"/>
      <point x="74.0" y="277.462686567"/>
      <point x="74" y="520" type="qcurve" smooth="yes"/>
      <point x="74" y="551" type="line" smooth="yes"/>
      <point x="74.0" y="794.28358209"/>
      <point x="312.985074627" y="1094.0"/>
      <point x="510" y="1094" type="qcurve" smooth="yes"/>
      <point x="639.850746269" y="1094.0"/>
      <point x="815.940298507" y="954.656716418"/>
      <point x="854" y="836" type="qcurve"/>
      <point x="870" y="836" type="line"/>
      <point x="907.313432836" y="954.656716418"/>
      <point x="1072.59701493" y="1094.0"/>
      <point x="1192" y="1094" type="qcurve" smooth="yes"/>
      <point x="1374.08955224" y="1094.0"/>
      <point x="1589.0" y="797.746268657"/>
      <point x="1589" y="547" type="qcurve" smooth="yes"/>
      <point x="1589" y="489" type="line"/>
      <point x="963" y="489" type="line"/>
      <point x="968.970149254" y="307.656716418"/>
      <point x="1115.59701493" y="135.0"/>
      <point x="1235" y="135" type="qcurve" smooth="yes"/>
      <point x="1311.11940299" y="135.0"/>
      <point x="1450.11940299" y="190.776119403"/>
    </contour>
    <contour>
      <point x="522" y="119" type="qcurve" smooth="yes"/>
      <point x="633.940298507" y="119.0"/>
      <point x="752.0" y="327.462686567"/>
      <point x="752" y="520" type="qcurve" smooth="yes"/>
      <point x="752" y="551" type="line" smooth="yes"/>
      <point x="752.0" y="745.029850746"/>
      <point x="633.940298507" y="954.0"/>
      <point x="522" y="954" type="qcurve" smooth="yes"/>
      <point x="410.805970149" y="954.0"/>
      <point x="293.0" y="745.537313433"/>
      <point x="293" y="553" type="qcurve" smooth="yes"/>
      <point x="293" y="522" type="line" smooth="yes"/>
      <point x="293.0" y="329.462686567"/>
      <point x="410.805970149" y="119.0"/>
    </contour>
    <contour>
      <point x="963" y="592" type="qcurve"/>
      <point x="1382" y="592" type="line"/>
      <point x="1374.53731343" y="780.059701493"/>
      <point x="1276.26865672" y="961.0"/>
      <point x="1180" y="961" type="qcurve" smooth="yes"/>
      <point x="1080.74626866" y="961.0"/>
      <point x="968.970149254" y="770.358208955"/>
    </contour>
  </outline>
</glyph>
<glyph name="florin" format="1">
  <advance width="972.8"/>
  <unicode hex="0192"/>
  <outline>
    <contour>
      <point x="713" y="1487" type="qcurve" smooth="yes"/>
      <point x="784.641791045" y="1487.0"/>
      <point x="898.47761194" y="1470.68656716"/>
      <point x="944" y="1458" type="qcurve"/>
      <point x="915" y="1303" type="line"/>
      <point x="873.955223881" y="1316.43283582"/>
      <point x="798.0" y="1327.0"/>
      <point x="748" y="1327" type="qcurve" smooth="yes"/>
      <point x="681.582089552" y="1327.0"/>
      <point x="595.432835821" y="1249.35820896"/>
      <point x="582" y="1171" type="qcurve" smooth="yes"/>
      <point x="543" y="952" type="line"/>
      <point x="803" y="952" type="line"/>
      <point x="776" y="795" type="line"/>
      <point x="516" y="795" type="line"/>
      <point x="354" y="-119" type="line" smooth="yes"/>
      <point x="327.880597015" y="-268.253731343"/>
      <point x="160.880597015" y="-389.0"/>
      <point x="37" y="-389" type="qcurve" smooth="yes"/>
      <point x="-18.223880597" y="-389.0"/>
      <point x="-107.417910448" y="-376.462686567"/>
      <point x="-141" y="-369" type="qcurve"/>
      <point x="-115" y="-219" type="line"/>
      <point x="-88.8805970149" y="-224.970149254"/>
      <point x="-30.5970149254" y="-233.0"/>
      <point x="0" y="-233" type="qcurve" smooth="yes"/>
      <point x="53.7313432836" y="-233.0"/>
      <point x="127.059701493" y="-169.402985075"/>
      <point x="139" y="-100" type="qcurve" smooth="yes"/>
      <point x="299" y="795" type="line"/>
      <point x="94" y="795" type="line"/>
      <point x="121" y="952" type="line"/>
      <point x="326" y="952" type="line"/>
      <point x="367" y="1190" type="line" smooth="yes"/>
      <point x="393.865671642" y="1348.95522388"/>
      <point x="573.447761194" y="1487.0"/>
    </contour>
  </outline>
</glyph>
<glyph name="circumflex" format="1">
  <advance width="1024.0"/>
  <unicode hex="02C6"/>
  <outline>
    <contour>
      <point x="598" y="1538" type="line"/>
      <point x="842" y="1206" type="line"/>
      <point x="729" y="1206" type="line"/>
      <point x="510" y="1399" type="line"/>
      <point x="291" y="1206" type="line"/>
      <point x="182" y="1206" type="line"/>
      <point x="426" y="1538" type="line"/>
    </contour>
  </outline>
</glyph>
<glyph name="dotaccent" format="1">
  <advance width="1024.0"/>
  <unicode hex="02D9"/>
  <outline>
    <contour>
      <point x="614" y="1430" type="line"/>
      <point x="614" y="1212" type="line"/>
      <point x="410" y="1212" type="line"/>
      <point x="410" y="1430" type="line"/>
    </contour>
  </outline>
</glyph>
<glyph name="ogonek" format="1">
  <advance width="1024.0"/>
  <unicode hex="02DB"/>
  <outline>
    <contour>
      <point x="752" y="-256" type="qcurve"/>
      <point x="780" y="-319" type="line"/>
      <point x="715.820895522" y="-353.328358209"/>
      <point x="583.641791045" y="-389.0"/>
      <point x="512" y="-389" type="qcurve" smooth="yes"/>
      <point x="412.746268657" y="-389.0"/>
      <point x="299.0" y="-307.641791045"/>
      <point x="299" y="-236" type="qcurve" smooth="yes"/>
      <point x="299.0" y="-168.089552239"/>
      <point x="407.701492537" y="-47.0149253731"/>
      <point x="498" y="0" type="qcurve"/>
      <point x="604" y="0" type="line"/>
      <point x="526.388059701" y="-55.223880597"/>
      <point x="457.0" y="-159.23880597"/>
      <point x="457" y="-207" type="qcurve" smooth="yes"/>
      <point x="457.0" y="-246.552238806"/>
      <point x="514.492537313" y="-295.0"/>
      <point x="563" y="-295" type="qcurve" smooth="yes"/>
      <point x="610.76119403" y="-295.0"/>
      <point x="698.268656716" y="-276.149253731"/>
    </contour>
  </outline>
</glyph>
<glyph name="tilde" format="1">
  <advance width="1024.0"/>
  <unicode hex="02DC"/>
  <outline>
    <contour>
      <point x="733" y="1475" type="qcurve"/>
      <point x="844" y="1475" type="line"/>
      <point x="848.47761194" y="1339.92537313"/>
      <point x="761.28358209" y="1212.0"/>
      <point x="668" y="1212" type="qcurve" smooth="yes"/>
      <point x="577.701492537" y="1212.0"/>
      <point x="426.462686567" y="1323.0"/>
      <point x="369" y="1323" type="qcurve" smooth="yes"/>
      <point x="328.701492537" y="1323.0"/>
      <point x="292.492537313" y="1272.97014925"/>
      <point x="291" y="1217" type="qcurve"/>
      <point x="180" y="1217" type="line"/>
      <point x="175.52238806" y="1351.32835821"/>
      <point x="262.71641791" y="1479.0"/>
      <point x="356" y="1479" type="qcurve" smooth="yes"/>
      <point x="446.298507463" y="1479.0"/>
      <point x="597.537313433" y="1366.0"/>
      <point x="655" y="1366" type="qcurve" smooth="yes"/>
      <point x="695.298507463" y="1366.0"/>
      <point x="731.507462687" y="1416.79104478"/>
    </contour>
  </outline>
</glyph>
<glyph name="quotedblleft" format="1">
  <advance width="790.528"/>
  <unicode hex="201C"/>
  <outline>
    <contour>
      <point x="289" y="1475" type="line"/>
      <point x="352" y="969" type="line"/>
      <point x="229" y="969" type="line"/>
      <point x="51" y="1475" type="line"/>
    </contour>
    <contour>
      <point x="653" y="1475" type="line"/>
      <point x="717" y="969" type="line"/>
      <point x="594" y="969" type="line"/>
      <point x="416" y="1475" type="line"/>
    </contour>
  </outline>
</glyph>
<glyph name="quotedblright" format="1">
  <advance width="790.528"/>
  <unicode hex="201D"/>
  <outline>
    <contour>
      <point x="137" y="1475" type="line"/>
      <point x="375" y="1475" type="line"/>
      <point x="197" y="969" type="line"/>
      <point x="76" y="969" type="line"/>
    </contour>
    <contour>
      <point x="502" y="1475" type="line"/>
      <point x="739" y="1475" type="line"/>
      <point x="561" y="969" type="line"/>
      <point x="440" y="969" type="line"/>
    </contour>
  </outline>
</glyph>
<glyph name="perthousand" format="1">
  <advance width="2619.392"/>
  <unicode hex="2030"/>
  <outline>
    <contour>
      <point x="420" y="1489" type="qcurve" smooth="yes"/>
      <point x="574.47761194" y="1489.0"/>
      <point x="776.0" y="1269.53731343"/>
      <point x="776" y="1077" type="qcurve" smooth="yes"/>
      <point x="776.0" y="885.955223881"/>
      <point x="570.47761194" y="664.0"/>
      <point x="416" y="664" type="qcurve" smooth="yes"/>
      <point x="263.014925373" y="664.0"/>
      <point x="61.0" y="884.462686567"/>
      <point x="61" y="1077" type="qcurve" smooth="yes"/>
      <point x="61.0" y="1266.55223881"/>
      <point x="267.014925373" y="1489.0"/>
    </contour>
    <contour>
      <point x="418" y="801" type="qcurve" smooth="yes"/>
      <point x="505.313432836" y="801.0"/>
      <point x="604.0" y="946.641791045"/>
      <point x="604" y="1075" type="qcurve" smooth="yes"/>
      <point x="604.0" y="1201.86567164"/>
      <point x="506.805970149" y="1352.0"/>
      <point x="418" y="1352" type="qcurve" smooth="yes"/>
      <point x="330.686567164" y="1352.0"/>
      <point x="233.0" y="1205.86567164"/>
      <point x="233" y="1079" type="qcurve" smooth="yes"/>
      <point x="233.0" y="950.641791045"/>
      <point x="330.686567164" y="801.0"/>
    </contour>
    <contour>
      <point x="1382" y="811" type="qcurve" smooth="yes"/>
      <point x="1534.98507463" y="811.0"/>
      <point x="1737.0" y="589.537313433"/>
      <point x="1737" y="397" type="qcurve" smooth="yes"/>
      <point x="1737.0" y="207.447761194"/>
      <point x="1530.98507463" y="-14.0"/>
      <point x="1378" y="-14" type="qcurve" smooth="yes"/>
      <point x="1223.52238806" y="-14.0"/>
      <point x="1022.0" y="204.462686567"/>
      <point x="1022" y="397" type="qcurve" smooth="yes"/>
      <point x="1022.0" y="588.044776119"/>
      <point x="1228.26865672" y="811.0"/>
    </contour>
    <contour>
      <point x="1380" y="123" type="qcurve" smooth="yes"/>
      <point x="1467.31343284" y="123.0"/>
      <point x="1565.0" y="268.134328358"/>
      <point x="1565" y="395" type="qcurve" smooth="yes"/>
      <point x="1565.0" y="523.358208955"/>
      <point x="1467.31343284" y="674.0"/>
      <point x="1380" y="674" type="qcurve" smooth="yes"/>
      <point x="1291.94029851" y="674.0"/>
      <point x="1194.0" y="527.358208955"/>
      <point x="1194" y="399" type="qcurve" smooth="yes"/>
      <point x="1194.0" y="272.134328358"/>
      <point x="1291.94029851" y="123.0"/>
    </contour>
    <contour>
      <point x="2204" y="811" type="qcurve" smooth="yes"/>
      <point x="2356.23880597" y="811.0"/>
      <point x="2558.0" y="589.537313433"/>
      <point x="2558" y="397" type="qcurve" smooth="yes"/>
      <point x="2558.0" y="207.447761194"/>
      <point x="2352.23880597" y="-14.0"/>
      <point x="2200" y="-14" type="qcurve" smooth="yes"/>
      <point x="2045.52238806" y="-14.0"/>
      <point x="1843.0" y="204.462686567"/>
      <point x="1843" y="397" type="qcurve" smooth="yes"/>
      <point x="1843.0" y="588.044776119"/>
      <point x="2049.52238806" y="811.0"/>
    </contour>
    <contour>
      <point x="2202" y="123" type="qcurve" smooth="yes"/>
      <point x="2288.56716418" y="123.0"/>
      <point x="2386.0" y="268.134328358"/>
      <point x="2386" y="395" type="qcurve" smooth="yes"/>
      <point x="2386.0" y="523.358208955"/>
      <point x="2288.56716418" y="674.0"/>
      <point x="2202" y="674" type="qcurve" smooth="yes"/>
      <point x="2114.68656716" y="674.0"/>
      <point x="2015.0" y="527.358208955"/>
      <point x="2015" y="399" type="qcurve" smooth="yes"/>
      <point x="2015.0" y="272.134328358"/>
      <point x="2113.19402985" y="123.0"/>
    </contour>
    <contour>
      <point x="1253" y="1475" type="line"/>
      <point x="1450" y="1475" type="line"/>
      <point x="950" y="715" type="line"/>
      <point x="545" y="0" type="line"/>
      <point x="348" y="0" type="line"/>
      <point x="848" y="760" type="line"/>
    </contour>
  </outline>
</glyph>
<glyph name="Euro" format="1">
  <advance width="1216.512"/>
  <unicode hex="20AC"/>
  <outline>
    <contour>
      <point x="985" y="438" type="qcurve"/>
      <point x="1149" y="344" type="line"/>
      <point x="1070.64179104" y="176.089552239"/>
      <point x="837.507462687" y="-25.0"/>
      <point x="639" y="-25" type="qcurve" smooth="yes"/>
      <point x="391.23880597" y="-25.0"/>
      <point x="94.0" y="362.970149254"/>
      <point x="94" y="707" type="qcurve" smooth="yes"/>
      <point x="94" y="768" type="line" smooth="yes"/>
      <point x="94.0" y="1110.53731343"/>
      <point x="391.268656716" y="1499.0"/>
      <point x="645" y="1499" type="qcurve" smooth="yes"/>
      <point x="837.537313433" y="1499.0"/>
      <point x="1067.11940299" y="1323.89552239"/>
      <point x="1141" y="1153" type="qcurve"/>
      <point x="963" y="1049" type="line"/>
      <point x="907.776119403" y="1184.82089552"/>
      <point x="760.940298507" y="1321.0"/>
      <point x="649" y="1321" type="qcurve" smooth="yes"/>
      <point x="514.671641791" y="1321.0"/>
      <point x="358.149253731" y="1111.88059701"/>
      <point x="338" y="938" type="qcurve"/>
      <point x="772" y="938" type="line"/>
      <point x="772" y="823" type="line"/>
      <point x="330" y="823" type="line"/>
      <point x="330.0" y="808.074626866"/>
      <point x="328.0" y="776.925373134"/>
      <point x="328" y="762" type="qcurve" smooth="yes"/>
      <point x="328" y="707" type="line" smooth="yes"/>
      <point x="328.0" y="688.343283582"/>
      <point x="330.507462687" y="647.417910448"/>
      <point x="332" y="631" type="qcurve"/>
      <point x="772" y="631" type="line"/>
      <point x="772" y="516" type="line"/>
      <point x="340" y="516" type="line"/>
      <point x="363.134328358" y="352.567164179"/>
      <point x="525.432835821" y="154.0"/>
      <point x="662" y="154" type="qcurve" smooth="yes"/>
      <point x="774.686567164" y="154.0"/>
      <point x="928.28358209" y="299.194029851"/>
    </contour>
  </outline>
</glyph>
<glyph name="trademark" format="1">
  <advance width="1597.44"/>
  <unicode hex="2122"/>
  <outline>
    <contour>
      <point x="1479" y="1475" type="line"/>
      <point x="1479" y="780" type="line"/>
      <point x="1356" y="780" type="line"/>
      <point x="1356" y="1348" type="line"/>
      <point x="1352" y="1348" type="line"/>
      <point x="1167" y="780" type="line"/>
      <point x="1040" y="780" type="line"/>
      <point x="856" y="1348" type="line"/>
      <point x="852" y="1348" type="line"/>
      <point x="852" y="780" type="line"/>
      <point x="733" y="780" type="line"/>
      <point x="733" y="1475" type="line"/>
      <point x="930" y="1475" type="line"/>
      <point x="1102" y="932" type="line"/>
      <point x="1108" y="932" type="line"/>
      <point x="1282" y="1475" type="line"/>
    </contour>
    <contour>
      <point x="614" y="1475" type="line"/>
      <point x="614" y="1368" type="line"/>
      <point x="406" y="1368" type="line"/>
      <point x="406" y="780" type="line"/>
      <point x="274" y="780" type="line"/>
      <point x="274" y="1368" type="line"/>
      <point x="66" y="1368" type="line"/>
      <point x="66" y="1475" type="line"/>
    </contour>
  </outline>
</glyph>
<glyph name="radical" format="1">
  <advance width="1191.936"/>
  <unicode hex="221A"/>
  <outline>
    <contour>
      <point x="901" y="1475" type="line"/>
      <point x="1143" y="1475" type="line"/>
      <point x="623" y="-6" type="line"/>
      <point x="381" y="-6" type="line"/>
      <point x="63" y="696" type="line"/>
      <point x="293" y="696" type="line"/>
      <point x="504" y="180" type="line"/>
    </contour>
  </outline>
</glyph>
<glyph name="f_f_l" format="1">
  <advance width="1855.488"/>
  <unicode hex="FB04"/>
  <outline>
    <contour>
      <point x="1380" y="1530" type="qcurve"/>
      <point x="1380" y="1372" type="line"/>
      <point x="1347.91044776" y="1386.17910448"/>
      <point x="1275.0" y="1403.0"/>
      <point x="1225" y="1403" type="qcurve" smooth="yes"/>
      <point x="1156.34328358" y="1403.0"/>
      <point x="1083.0" y="1325.8358209"/>
      <point x="1083" y="1243" type="qcurve" smooth="yes"/>
      <point x="1083" y="1067" type="line"/>
      <point x="1346" y="1067" type="line"/>
      <point x="1346" y="915" type="line"/>
      <point x="1083" y="915" type="line"/>
      <point x="1083" y="0" type="line"/>
      <point x="866" y="0" type="line"/>
      <point x="866" y="915" type="line"/>
      <point x="451" y="915" type="line"/>
      <point x="451" y="0" type="line"/>
      <point x="233" y="0" type="line"/>
      <point x="233" y="915" type="line"/>
      <point x="31" y="915" type="line"/>
      <point x="31" y="1067" type="line"/>
      <point x="233" y="1067" type="line"/>
      <point x="233" y="1237" type="line" smooth="yes"/>
      <point x="233.0" y="1394.46268657"/>
      <point x="400.492537313" y="1554.0"/>
      <point x="549" y="1554" type="qcurve" smooth="yes"/>
      <point x="616.164179104" y="1554.0"/>
      <point x="707.701492537" y="1540.44776119"/>
      <point x="748" y="1530" type="qcurve"/>
      <point x="748" y="1372" type="line"/>
      <point x="715.910447761" y="1386.17910448"/>
      <point x="642.0" y="1403.0"/>
      <point x="592" y="1403" type="qcurve" smooth="yes"/>
      <point x="523.343283582" y="1403.0"/>
      <point x="451.0" y="1325.8358209"/>
      <point x="451" y="1243" type="qcurve" smooth="yes"/>
      <point x="451" y="1067" type="line"/>
      <point x="866" y="1067" type="line"/>
      <point x="866" y="1237" type="line" smooth="yes"/>
      <point x="866.0" y="1394.46268657"/>
      <point x="1033.49253731" y="1554.0"/>
      <point x="1182" y="1554" type="qcurve" smooth="yes"/>
      <point x="1249.1641791" y="1554.0"/>
      <point x="1340.44776119" y="1540.44776119"/>
    </contour>
    <contour>
      <point x="1718" y="1554" type="line"/>
      <point x="1718" y="0" type="line"/>
      <point x="1499" y="0" type="line"/>
      <point x="1499" y="1507" type="line"/>
    </contour>
  </outline>
</glyph>
